<?xml version="1.0" encoding="UTF-8" standalone="no"?>
<!-- Created with Inkscape (http://www.inkscape.org/) -->

<svg
   version="1.1"
   id="svg2"
   width="333.33334"
   height="333.33334"
   viewBox="0 0 333.33334 333.33334"
   sodipodi:docname="logo.eps"
   xmlns:inkscape="http://www.inkscape.org/namespaces/inkscape"
   xmlns:sodipodi="http://sodipodi.sourceforge.net/DTD/sodipodi-0.dtd"
   xmlns="http://www.w3.org/2000/svg"
   xmlns:svg="http://www.w3.org/2000/svg">
  <defs
     id="defs6">
    <clipPath
       clipPathUnits="userSpaceOnUse"
       id="clipPath184">
      <path
         d="m 1797.97,1983.7 1.36,11.01 c 6.15,50.08 53.58,92.38 103.59,92.38 23.31,0 44.09,-8.98 58.53,-25.3 14.62,-16.54 21.09,-38.68 18.18,-62.34 l -1.93,-15.75 h 39.26 l 1.35,11.01 c 4.29,34.89 -5.55,67.89 -27.68,92.9 -21.93,24.79 -53.08,38.44 -87.71,38.44 -69.88,0 -133.7,-56.79 -142.28,-126.6 l -1.93,-15.75 z"
         id="path182" />
    </clipPath>
    <linearGradient
       x1="0"
       y1="0"
       x2="1"
       y2="0"
       gradientUnits="userSpaceOnUse"
       gradientTransform="matrix(311.77,418.94,418.94,-311.77,1561.23,1566.45)"
       spreadMethod="pad"
       id="linearGradient190">
      <stop
         style="stop-opacity:1;stop-color:#e91c24"
         offset="0"
         id="stop186" />
      <stop
         style="stop-opacity:1;stop-color:#ef3328"
         offset="1"
         id="stop188" />
    </linearGradient>
    <clipPath
       clipPathUnits="userSpaceOnUse"
       id="clipPath200">
      <path
         d="m 1497.16,1704.95 c 16.07,0 29.23,11.57 29.23,25.71 0,14.14 -13.16,25.72 -29.23,25.72 h -5.04 -87.64 c -16.08,0 -29.23,-11.58 -29.23,-25.72 0,-14.14 13.15,-25.71 29.23,-25.71 h 87.64 z"
         id="path198" />
    </clipPath>
    <linearGradient
       x1="0"
       y1="0"
       x2="1"
       y2="0"
       gradientUnits="userSpaceOnUse"
       gradientTransform="matrix(311.77,418.94,418.94,-311.77,1411.52,1677.86)"
       spreadMethod="pad"
       id="linearGradient206">
      <stop
         style="stop-opacity:1;stop-color:#e91c24"
         offset="0"
         id="stop202" />
      <stop
         style="stop-opacity:1;stop-color:#ef3328"
         offset="1"
         id="stop204" />
    </linearGradient>
    <clipPath
       clipPathUnits="userSpaceOnUse"
       id="clipPath216">
      <path
         d="m 1516.92,1910.64 h 18.92 c 16.08,0 29.23,11.57 29.23,25.71 0,14.14 -13.15,25.7 -29.23,25.7 h -18.92 c -16.07,0 -29.22,-11.56 -29.22,-25.7 0,-14.14 13.15,-25.71 29.22,-25.71 z"
         id="path214" />
    </clipPath>
    <linearGradient
       x1="0"
       y1="0"
       x2="1"
       y2="0"
       gradientUnits="userSpaceOnUse"
       gradientTransform="matrix(311.77,418.94,418.94,-311.77,1361.64,1714.98)"
       spreadMethod="pad"
       id="linearGradient222">
      <stop
         style="stop-opacity:1;stop-color:#e91c24"
         offset="0"
         id="stop218" />
      <stop
         style="stop-opacity:1;stop-color:#ef3328"
         offset="1"
         id="stop220" />
    </linearGradient>
    <clipPath
       clipPathUnits="userSpaceOnUse"
       id="clipPath232">
      <path
         d="m 1985.53,1866.25 c -12.56,0 -22.74,10.18 -22.74,22.73 0,12.56 10.18,22.74 22.74,22.74 12.55,0 22.73,-10.18 22.73,-22.74 0,-12.55 -10.18,-22.73 -22.73,-22.73 z m -218.99,0 c -12.56,0 -22.73,10.18 -22.73,22.73 0,10.65 7.34,19.5 17.22,21.99 1.17,0.12 2.32,0.29 3.45,0.53 l 2.06,0.22 c 12.56,0 22.74,-10.18 22.74,-22.74 0,-12.55 -10.18,-22.73 -22.74,-22.73 z m -64.36,-212.71 h -31.4 c -16.07,0 -29.23,11.56 -29.23,25.7 0,14.14 13.16,25.71 29.23,25.71 h 31.4 c 16.07,0 29.23,-11.57 29.23,-25.71 0,-14.14 -13.16,-25.7 -29.23,-25.7 z m 366.84,308.51 h -456.18 c -16.07,0 -29.23,-11.56 -29.23,-25.7 0,-14.14 13.16,-25.71 29.23,-25.71 h -0.52 c 16.08,0 29.23,-11.58 29.23,-25.72 0,-14.14 -13.15,-25.71 -29.23,-25.71 h -81.51 c -16.07,0 -29.23,-11.57 -29.23,-25.7 0,-14.15 13.16,-25.72 29.23,-25.72 h 104.25 3.23 l -0.06,-0.28 c 14.58,-1.42 26.06,-12.24 26.06,-25.43 0,-14.14 -13.16,-25.7 -29.23,-25.7 h -6.95 -48.8 c -16.08,0 -29.23,-11.58 -29.23,-25.72 0,-14.14 13.15,-25.71 29.23,-25.71 h 3.49 c 16.08,0 29.23,-11.57 29.23,-25.71 0,-14.14 -13.15,-25.7 -29.23,-25.7 h -90.68 -5.37 c -16.08,0 -29.23,-11.58 -29.23,-25.72 0,-14.14 13.15,-25.71 29.23,-25.71 h 5.37 105.43 94.34 c 16.08,0 29.23,-11.56 29.23,-25.72 0,-14.13 -13.15,-25.7 -29.23,-25.7 h -104.53 l -0.5,-2.58 c -9.86,-4.13 -16.75,-12.92 -16.75,-23.13 0,-14.14 13.15,-25.71 29.23,-25.71 h 10.32 127.65 309.74 c 17.86,0 33.17,14.6 34.01,32.44 l 18.9,397.9 c 0.85,17.84 -13.08,32.44 -30.94,32.44 z"
         id="path230" />
    </clipPath>
    <linearGradient
       x1="0"
       y1="0"
       x2="1"
       y2="0"
       gradientUnits="userSpaceOnUse"
       gradientTransform="matrix(311.77,418.94,418.94,-311.77,1654.12,1497.32)"
       spreadMethod="pad"
       id="linearGradient238">
      <stop
         style="stop-opacity:1;stop-color:#e91c24"
         offset="0"
         id="stop234" />
      <stop
         style="stop-opacity:1;stop-color:#ef3328"
         offset="1"
         id="stop236" />
    </linearGradient>
    <clipPath
       clipPathUnits="userSpaceOnUse"
       id="clipPath248">
      <path
         d="m 577.234,1008.5 -10.293,10.29 27.239,-1.82 13.925,18.76 374.891,-0.3 1.313,-16.64 -8.176,-21.802 -44.192,-22.386 z"
         id="path246" />
    </clipPath>
    <linearGradient
       x1="0"
       y1="0"
       x2="1"
       y2="0"
       gradientUnits="userSpaceOnUse"
       gradientTransform="matrix(-308.304,371.256,-371.256,-308.304,904.272,871.4)"
       spreadMethod="pad"
       id="linearGradient254">
      <stop
         style="stop-opacity:1;stop-color:#f36721"
         offset="0"
         id="stop250" />
      <stop
         style="stop-opacity:1;stop-color:#fab818"
         offset="1"
         id="stop252" />
    </linearGradient>
    <clipPath
       clipPathUnits="userSpaceOnUse"
       id="clipPath264">
      <path
         d="m 1039.75,909.199 c 0.81,-5.508 -2.2,-25.898 -32.4,-59.558 l 0.09,-0.7 C 963.965,802.559 895.352,758.328 813.281,728.211 745.266,703.25 679.219,692.09 624.219,693.691 l 19.804,325.099 h 303.055 l 22.551,-4.7 13.367,21.34 21.044,-160.532 c 13,7.602 26.93,18.762 35.71,34.301 z"
         id="path262" />
    </clipPath>
    <linearGradient
       x1="0"
       y1="0"
       x2="1"
       y2="0"
       gradientUnits="userSpaceOnUse"
       gradientTransform="matrix(-308.304,371.256,-371.256,-308.304,841.331,819.13)"
       spreadMethod="pad"
       id="linearGradient270">
      <stop
         style="stop-opacity:1;stop-color:#f36721"
         offset="0"
         id="stop266" />
      <stop
         style="stop-opacity:1;stop-color:#fab818"
         offset="1"
         id="stop268" />
    </linearGradient>
    <clipPath
       clipPathUnits="userSpaceOnUse"
       id="clipPath280">
      <path
         d="m 830.867,662.512 c 74.914,27.5 139.524,66.289 186.753,108.789 l 26.91,-205.281 -32.99,-4.551 -35.407,-19.668 h -361.16 l 5.125,84.269 c 61.543,-2.98 135.183,8.7 210.769,36.442 z"
         id="path278" />
    </clipPath>
    <linearGradient
       x1="0"
       y1="0"
       x2="1"
       y2="0"
       gradientUnits="userSpaceOnUse"
       gradientTransform="matrix(401.925,-490.704,490.704,401.925,532.035,1003.6)"
       spreadMethod="pad"
       id="linearGradient286">
      <stop
         style="stop-opacity:1;stop-color:#527dc8"
         offset="0"
         id="stop282" />
      <stop
         style="stop-opacity:1;stop-color:#274287"
         offset="1"
         id="stop284" />
    </linearGradient>
    <clipPath
       clipPathUnits="userSpaceOnUse"
       id="clipPath296">
      <path
         d="m 656.438,1011.32 c 5.339,0 9.675,4.33 9.675,9.69 0,51.27 40.039,74.61 77.246,74.61 37.2,0 77.239,-23.34 77.239,-74.61 0,-5.36 4.336,-9.69 9.683,-9.69 5.344,0 9.68,4.33 9.68,9.69 0,61.7 -48.594,93.99 -96.602,93.99 -48.007,0 -96.613,-32.29 -96.613,-93.99 0,-5.36 4.34,-9.69 9.692,-9.69 z"
         id="path294" />
    </clipPath>
    <linearGradient
       x1="0"
       y1="0"
       x2="1"
       y2="0"
       gradientUnits="userSpaceOnUse"
       gradientTransform="matrix(-308.304,371.256,-371.256,-308.304,890.413,859.89)"
       spreadMethod="pad"
       id="linearGradient302">
      <stop
         style="stop-opacity:1;stop-color:#f36721"
         offset="0"
         id="stop298" />
      <stop
         style="stop-opacity:1;stop-color:#fab818"
         offset="1"
         id="stop300" />
    </linearGradient>
    <clipPath
       clipPathUnits="userSpaceOnUse"
       id="clipPath312">
      <path
         d="m 696.277,1011.32 c 5.356,0 9.692,4.33 9.692,9.69 0,51.27 40.039,74.61 77.234,74.61 37.195,0 77.246,-23.34 77.246,-74.61 0,-5.36 4.336,-9.69 9.68,-9.69 5.351,0 9.684,4.33 9.684,9.69 0,61.7 -48.602,93.99 -96.61,93.99 -48.008,0 -96.601,-32.29 -96.601,-93.99 0,-5.36 4.336,-9.69 9.675,-9.69 z"
         id="path310" />
    </clipPath>
    <linearGradient
       x1="0"
       y1="0"
       x2="1"
       y2="0"
       gradientUnits="userSpaceOnUse"
       gradientTransform="matrix(-136.011,531.49,-531.49,-136.011,920.483,490.76)"
       spreadMethod="pad"
       id="linearGradient318">
      <stop
         style="stop-opacity:1;stop-color:#f36721"
         offset="0"
         id="stop314" />
      <stop
         style="stop-opacity:1;stop-color:#fab818"
         offset="1"
         id="stop316" />
    </linearGradient>
    <clipPath
       clipPathUnits="userSpaceOnUse"
       id="clipPath328">
      <path
         d="m 830.867,662.512 c 49.856,18.297 95.141,41.597 133.789,67.668 L 976.133,541.801 H 537.891 l 5.949,97.597 c 70.43,-23.699 176.648,-17.41 287.027,23.114 z"
         id="path326" />
    </clipPath>
    <linearGradient
       x1="0"
       y1="0"
       x2="1"
       y2="0"
       gradientUnits="userSpaceOnUse"
       gradientTransform="matrix(228.903,-562.447,562.447,228.903,633.479,925.43)"
       spreadMethod="pad"
       id="linearGradient334">
      <stop
         style="stop-opacity:1;stop-color:#6691d2"
         offset="0"
         id="stop330" />
      <stop
         style="stop-opacity:1;stop-color:#3152ac"
         offset="1"
         id="stop332" />
    </linearGradient>
    <clipPath
       clipPathUnits="userSpaceOnUse"
       id="clipPath344">
      <path
         d="M 813.281,728.211 C 700.508,686.82 593.098,683.309 532.617,713.172 c -13.34,7.058 -18.586,13.859 -19.875,16.937 11.535,-5.789 24.262,-7.66 36.153,-7.578 l 18.046,296.259 H 947.078 L 960,806.719 C 920.02,776.461 869.863,748.98 813.281,728.211 Z"
         id="path342" />
    </clipPath>
    <linearGradient
       x1="0"
       y1="0"
       x2="1"
       y2="0"
       gradientUnits="userSpaceOnUse"
       gradientTransform="matrix(-136.011,531.49,-531.49,-136.011,833.778,468.57)"
       spreadMethod="pad"
       id="linearGradient350">
      <stop
         style="stop-opacity:1;stop-color:#f36721"
         offset="0"
         id="stop346" />
      <stop
         style="stop-opacity:1;stop-color:#fab818"
         offset="1"
         id="stop348" />
    </linearGradient>
    <clipPath
       clipPathUnits="userSpaceOnUse"
       id="clipPath360">
      <path
         d="m 1103.04,916.629 c -9.41,30.43 -34.17,53.051 -69.45,67.332 13.24,-10.32 22.68,-23.039 27.36,-38.16 23.85,-77.242 -84.165,-186.571 -241.282,-244.242 -157.117,-57.661 -303.84,-41.821 -327.703,35.39 -5.852,18.949 -3.735,39.832 5.055,61.403 -27.184,-39.563 -38.028,-79.422 -27.274,-114.18 28.086,-90.871 192.625,-112.5 367.5,-48.313 174.894,64.192 293.884,189.879 265.794,280.77 z"
         id="path358" />
    </clipPath>
    <linearGradient
       x1="0"
       y1="0"
       x2="1"
       y2="0"
       gradientUnits="userSpaceOnUse"
       gradientTransform="matrix(228.903,-562.447,562.447,228.903,721.011,961.05)"
       spreadMethod="pad"
       id="linearGradient366">
      <stop
         style="stop-opacity:1;stop-color:#6691d2"
         offset="0"
         id="stop362" />
      <stop
         style="stop-opacity:1;stop-color:#3152ac"
         offset="1"
         id="stop364" />
    </linearGradient>
    <clipPath
       clipPathUnits="userSpaceOnUse"
       id="clipPath376">
      <path
         d="m 2055.23,623.352 -74.28,357.589 c -2.8,18.571 -20.44,33.769 -39.22,33.769 h -291.01 c -18.78,0 -36.43,-15.198 -39.23,-33.769 l -74.27,-357.589 c -2.8,-18.563 10.28,-33.762 29.06,-33.762 h 34.46 c 0,43.371 35.16,78.531 78.54,78.531 43.37,0 78.53,-35.16 78.53,-78.531 h 76.83 c 0,43.371 35.15,78.531 78.53,78.531 43.38,0 78.54,-35.16 78.54,-78.531 h 34.46 c 18.78,0 31.86,15.199 29.06,33.762 z"
         id="path374" />
    </clipPath>
    <linearGradient
       x1="0"
       y1="0"
       x2="1"
       y2="0"
       gradientUnits="userSpaceOnUse"
       gradientTransform="matrix(0,619.183,619.183,0,1796.22,176.99)"
       spreadMethod="pad"
       id="linearGradient382">
      <stop
         style="stop-opacity:1;stop-color:#ef362b"
         offset="0"
         id="stop378" />
      <stop
         style="stop-opacity:1;stop-color:#f68c1e"
         offset="1"
         id="stop380" />
    </linearGradient>
    <clipPath
       clipPathUnits="userSpaceOnUse"
       id="clipPath394">
      <path
         d="m 1896.88,997.711 c -7.55,0 -13.67,6.119 -13.67,13.659 0,57.68 -45.09,83.96 -86.99,83.96 -41.89,0 -86.98,-26.28 -86.98,-83.96 0,-7.54 -6.12,-13.659 -13.66,-13.659 -7.54,0 -13.67,6.119 -13.67,13.659 0,73.05 57.51,111.28 114.31,111.28 56.81,0 114.31,-38.23 114.31,-111.28 0,-7.54 -6.12,-13.659 -13.65,-13.659 z"
         id="path392" />
    </clipPath>
    <linearGradient
       x1="0"
       y1="0"
       x2="1"
       y2="0"
       gradientUnits="userSpaceOnUse"
       gradientTransform="matrix(0,619.183,619.183,0,1796.22,176.99)"
       spreadMethod="pad"
       id="linearGradient400">
      <stop
         style="stop-opacity:1;stop-color:#ef362b"
         offset="0"
         id="stop396" />
      <stop
         style="stop-opacity:1;stop-color:#f68c1e"
         offset="1"
         id="stop398" />
    </linearGradient>
  </defs>
  <sodipodi:namedview
     id="namedview4"
     pagecolor="#ffffff"
     bordercolor="#000000"
     borderopacity="0.25"
     inkscape:showpageshadow="2"
     inkscape:pageopacity="0.0"
     inkscape:pagecheckerboard="0"
     inkscape:deskcolor="#d1d1d1" />
  <g
     id="g8"
     inkscape:groupmode="layer"
     inkscape:label="ink_ext_XXXXXX"
     transform="matrix(1.3333333,0,0,-1.3333333,0,333.33333)">
    <g
       id="g10"
       transform="scale(0.1)">
      <path
         d="M 2500,0 H 0 V 2500 H 2500 V 0"
         style="fill:#ffffff;fill-opacity:1;fill-rule:nonzero;stroke:none"
         id="path12" />
      <path
         d="m 437.5,1431.05 v -28.83 c 1.934,1.98 4.336,3.54 7.207,4.67 2.898,1.15 5.852,1.71 8.848,1.71 16.23,0 24.343,-9.5 24.343,-28.51 v -38.82 l -20.23,-0.06 v 37.49 c 0,3.88 -0.891,6.79 -2.656,8.72 -1.77,1.95 -4.258,2.91 -7.461,2.91 -3.125,0 -5.571,-0.96 -7.336,-2.91 -1.817,-1.93 -2.715,-4.84 -2.715,-8.72 v -37.43 l -20.234,-0.13 v 89.85 l 20.234,0.06"
         style="fill:#040606;fill-opacity:1;fill-rule:nonzero;stroke:none"
         id="path14" />
      <path
         d="m 506.25,1382.18 c -1.562,-2.49 -2.344,-5.21 -2.344,-8.16 0,-4.47 1.692,-8.33 5.059,-11.57 3.332,-3.2 7.273,-4.8 11.828,-4.8 4.59,0 8.555,1.6 11.883,4.8 3.371,3.24 5.058,7.1 5.058,11.57 0,2.95 -0.781,5.67 -2.343,8.16 -1.551,2.49 -3.645,4.46 -6.258,5.94 -2.57,1.43 -5.356,2.15 -8.34,2.15 -2.91,0 -5.676,-0.72 -8.281,-2.15 -2.617,-1.48 -4.707,-3.45 -6.262,-5.94 z m 31.543,-39.02 c -1.348,-0.58 -2.332,-0.98 -2.969,-1.2 -4.472,-1.73 -9.148,-2.59 -14.031,-2.59 -6.457,0 -12.539,1.5 -18.273,4.49 -5.735,3.03 -10.293,7.17 -13.665,12.39 -3.406,5.31 -5.117,11.24 -5.117,17.77 0,4.94 0.989,9.52 2.973,13.78 1.98,4.22 4.695,7.88 8.152,11.01 3.418,3.11 7.383,5.5 11.883,7.14 4.516,1.73 9.192,2.59 14.047,2.59 4.805,0 9.48,-0.84 14.031,-2.52 4.551,-1.69 8.516,-4.1 11.887,-7.21 3.543,-3.2 6.277,-6.88 8.223,-11.01 1.98,-4.26 2.964,-8.84 2.964,-13.78 l -0.054,-32.94 -20.051,0.19 v 1.89"
         style="fill:#040606;fill-opacity:1;fill-rule:nonzero;stroke:none"
         id="path16" />
      <path
         d="m 590.383,1373.83 c 0,-2.99 0.777,-5.69 2.344,-8.09 1.55,-2.49 3.64,-4.47 6.257,-5.95 2.571,-1.47 5.332,-2.21 8.282,-2.21 2.949,0 5.73,0.74 8.339,2.21 2.618,1.48 4.708,3.46 6.258,5.95 1.567,2.44 2.348,5.14 2.348,8.09 0,4.47 -1.691,8.35 -5.063,11.64 -3.328,3.24 -7.293,4.86 -11.882,4.86 -4.551,0 -8.496,-1.62 -11.828,-4.86 -3.368,-3.25 -5.055,-7.13 -5.055,-11.64 z m -20.168,0.45 c 0.039,6.44 1.75,12.23 5.117,17.38 3.367,5.27 7.93,9.39 13.66,12.39 5.735,3.04 11.821,4.55 18.274,4.55 4.929,0 9.609,-0.86 14.035,-2.58 4.383,-1.61 8.367,-4.04 11.953,-7.28 3.531,-3.24 6.277,-6.95 8.211,-11.12 1.941,-4.18 2.91,-8.77 2.91,-13.79 0,-4.88 -0.984,-9.46 -2.969,-13.72 -1.941,-4.21 -4.66,-7.9 -8.152,-11.07 -3.508,-3.2 -7.492,-5.62 -11.953,-7.26 -4.516,-1.65 -9.192,-2.47 -14.035,-2.47 -4.766,0 -9.422,0.82 -13.973,2.47 l -1.457,0.63 -1.453,0.63 v -26.68 l -20.168,0.07 v 57.85"
         style="fill:#040606;fill-opacity:1;fill-rule:nonzero;stroke:none"
         id="path18" />
      <path
         d="m 676.855,1373.83 c 0,-2.99 0.782,-5.69 2.344,-8.09 1.555,-2.49 3.645,-4.47 6.262,-5.95 2.566,-1.47 5.332,-2.21 8.277,-2.21 2.95,0 5.735,0.74 8.34,2.21 2.617,1.48 4.707,3.46 6.262,5.95 1.562,2.44 2.344,5.14 2.344,8.09 0,4.47 -1.692,8.35 -5.059,11.64 -3.328,3.24 -7.297,4.86 -11.887,4.86 -4.55,0 -8.496,-1.62 -11.824,-4.86 -3.367,-3.25 -5.059,-7.13 -5.059,-11.64 z m -20.167,0.45 c 0.042,6.44 1.75,12.23 5.121,17.38 3.367,5.27 7.925,9.39 13.66,12.39 5.73,3.04 11.816,4.55 18.269,4.55 4.934,0 9.614,-0.86 14.035,-2.58 4.383,-1.61 8.372,-4.04 11.954,-7.28 3.535,-3.24 6.281,-6.95 8.211,-11.12 1.945,-4.18 2.914,-8.77 2.914,-13.79 0,-4.88 -0.989,-9.46 -2.969,-13.72 -1.945,-4.21 -4.66,-7.9 -8.156,-11.07 -3.504,-3.2 -7.493,-5.62 -11.954,-7.26 -4.511,-1.65 -9.187,-2.47 -14.035,-2.47 -4.761,0 -9.422,0.82 -13.972,2.47 l -1.453,0.63 -1.458,0.63 v -26.68 l -20.167,0.07 v 57.85"
         style="fill:#040606;fill-opacity:1;fill-rule:nonzero;stroke:none"
         id="path20" />
      <path
         d="m 785.527,1342.47 c -3.839,-1.56 -7.382,-2.49 -10.625,-2.78 -19.941,-2.11 -29.902,7.4 -29.902,28.51 v 37.75 h 20.227 v -36.36 c 0,-3.83 0.886,-6.74 2.656,-8.72 1.765,-1.94 4.258,-2.91 7.461,-2.91 3.074,0 5.547,1 7.398,2.98 1.77,1.97 2.656,4.86 2.656,8.65 v 36.3 l 20.227,0.06 v -72.33 c 0,-7.84 -2.773,-14.59 -8.34,-20.23 -2.527,-2.53 -6.008,-4.6 -10.43,-6.2 -4.011,-1.43 -8.039,-2.15 -12.082,-2.15 h -3.347 c -9.024,0.17 -16.25,2.95 -21.692,8.35 -3.535,3.62 -5.73,6.86 -6.57,9.73 l 18.274,10.69 c 0.164,-3.2 1.406,-5.9 3.73,-8.1 2.312,-2.18 5.074,-3.28 8.277,-3.28 2.493,0 4.77,0.71 6.828,2.15 1.946,1.31 3.399,3.12 4.368,5.44 l 0.054,0.19 0.129,0.31 0.125,0.45 0.129,0.44 0.32,1.45 0.063,0.31 v 0.64 h 0.066 v 8.66"
         style="fill:#040606;fill-opacity:1;fill-rule:nonzero;stroke:none"
         id="path22" />
      <path
         d="m 865.156,1407.28 c -2.605,2.49 -4.914,4.23 -6.886,5.25 -2.11,1.09 -4.559,1.64 -7.332,1.64 -2.071,0 -4.012,-0.65 -5.821,-1.96 -1.894,-1.31 -2.844,-3.04 -2.844,-5.19 0,-3.03 2.063,-5.43 6.196,-7.21 4.219,-1.8 8.535,-3.56 12.957,-5.24 4.472,-1.77 8.347,-4.58 11.64,-8.41 3.243,-3.87 4.864,-9.57 4.864,-17.07 0,-9.61 -2.891,-16.99 -8.66,-22.13 -5.735,-5.18 -13.047,-7.78 -21.934,-7.78 -5.148,0 -10.117,0.89 -14.926,2.66 -4.851,1.77 -9.109,4.42 -12.769,7.96 l 11.882,16.95 c 3.79,-4.81 8.79,-7.21 14.981,-7.21 2.488,0 4.875,0.69 7.148,2.09 2.239,1.35 3.352,3.33 3.352,5.94 0,3.07 -2.094,5.53 -6.262,7.33 -1.855,0.8 -4.004,1.71 -6.445,2.73 l -3.289,1.33 -3.352,1.38 c -4.511,1.86 -8.371,4.66 -11.57,8.41 -3.203,3.71 -4.809,9.26 -4.809,16.63 0,5.65 1.399,10.58 4.172,14.8 2.703,4.17 6.309,7.37 10.813,9.61 4.383,2.18 9.09,3.29 14.097,3.29 4.641,0 9.192,-0.89 13.664,-2.66 4.551,-1.86 8.536,-4.42 11.946,-7.71 l -10.813,-15.43"
         style="fill:#f36828;fill-opacity:1;fill-rule:nonzero;stroke:none"
         id="path24" />
      <path
         d="m 908.113,1341.27 h -22 v 89.72 h 22 v -32.76 h 28.45 v 32.76 h 22 v -89.72 h -22 v 36.67 h -28.45 v -36.67"
         style="fill:#f36828;fill-opacity:1;fill-rule:nonzero;stroke:none"
         id="path26" />
      <path
         d="m 1007.29,1408.86 c -3.91,-2.44 -7.01,-5.74 -9.294,-9.87 -2.273,-4.09 -3.406,-8.38 -3.406,-12.9 0,-4.51 1.152,-8.8 3.476,-12.89 2.314,-4.18 5.394,-7.49 9.224,-9.93 3.88,-2.49 8.12,-3.73 12.71,-3.73 4.56,0 8.77,1.24 12.65,3.73 3.83,2.44 6.93,5.75 9.29,9.93 2.28,4.12 3.42,8.43 3.42,12.89 0,4.52 -1.14,8.81 -3.42,12.9 -2.27,4.1 -5.35,7.38 -9.23,9.87 -3.96,2.49 -8.2,3.73 -12.71,3.73 -4.59,0 -8.83,-1.24 -12.71,-3.73 z m 36.42,17.96 c 7.3,-4.22 13.05,-9.92 17.27,-17.07 4.25,-7.26 6.38,-15.14 6.38,-23.66 0,-8.55 -2.13,-16.41 -6.38,-23.58 -4.22,-7.21 -9.97,-12.89 -17.27,-17.07 -7.25,-4.17 -15.15,-6.26 -23.71,-6.26 -8.51,0 -16.42,2.09 -23.699,6.26 -7.336,4.22 -13.117,9.91 -17.324,17.07 -4.258,7.17 -6.387,15.03 -6.387,23.58 0,8.52 2.129,16.4 6.387,23.66 4.207,7.12 9.988,12.81 17.324,17.07 7.279,4.17 15.189,6.26 23.699,6.26 8.56,0 16.46,-2.09 23.71,-6.26"
         style="fill:#f36828;fill-opacity:1;fill-rule:nonzero;stroke:none"
         id="path28" />
      <path
         d="m 1101.12,1411.95 v -19.27 h 6.33 c 4.04,0 7.16,0.84 9.36,2.53 2.15,1.64 3.22,4.04 3.22,7.2 0,3.08 -1.07,5.43 -3.22,7.08 -2.2,1.64 -5.32,2.46 -9.36,2.46 z m -22.06,-70.68 v 89.72 h 26.81 c 5.99,0 11.08,-0.46 15.3,-1.39 4.3,-0.93 8.01,-2.49 11.12,-4.68 3.13,-2.2 5.53,-5.16 7.21,-8.91 1.69,-3.76 2.53,-8.33 2.53,-13.72 0,-4.43 -0.84,-8.39 -2.53,-11.89 -1.68,-3.51 -4.02,-6.49 -7.01,-8.98 -3.04,-2.53 -6.6,-4.45 -10.69,-5.76 -4.17,-1.34 -8.49,-2.02 -12.96,-2.02 h -7.72 v -32.37 h -22.06"
         style="fill:#f36828;fill-opacity:1;fill-rule:nonzero;stroke:none"
         id="path30" />
      <path
         d="m 555.059,1258.53 2.839,1.7 c 2.004,-3.69 4.321,-5.53 6.946,-5.53 1.133,0 2.187,0.26 3.176,0.79 0.984,0.52 1.738,1.22 2.246,2.1 0.515,0.89 0.781,1.81 0.781,2.8 0,1.12 -0.383,2.23 -1.145,3.3 -1.047,1.5 -2.961,3.28 -5.73,5.38 -2.805,2.11 -4.543,3.64 -5.227,4.57 -1.179,1.58 -1.765,3.29 -1.765,5.13 0,1.45 0.34,2.78 1.043,3.98 0.695,1.21 1.679,2.15 2.949,2.85 1.269,0.68 2.644,1.03 4.133,1.03 1.582,0 3.054,-0.39 4.429,-1.17 1.371,-0.79 2.825,-2.23 4.36,-4.32 l -2.739,-2.08 c -1.257,1.67 -2.332,2.78 -3.218,3.31 -0.879,0.53 -1.86,0.79 -2.903,0.79 -1.347,0 -2.453,-0.41 -3.308,-1.23 -0.863,-0.82 -1.289,-1.82 -1.289,-3.02 l 0.457,-2.12 1.66,-2.23 c 0.437,-0.43 1.887,-1.54 4.324,-3.35 2.902,-2.14 4.895,-4.04 5.969,-5.71 1.074,-1.67 1.621,-3.35 1.621,-5.04 0,-2.43 -0.93,-4.54 -2.773,-6.33 -1.844,-1.8 -4.082,-2.68 -6.727,-2.68 -2.031,0 -3.879,0.53 -5.539,1.62 -1.649,1.09 -3.176,2.91 -4.57,5.46"
         style="fill:#040606;fill-opacity:1;fill-rule:nonzero;stroke:none"
         id="path32" />
      <path
         d="m 592.512,1285.78 h 3.347 v -30.26 h 12.891 v -3.23 h -16.238 v 33.49"
         style="fill:#040606;fill-opacity:1;fill-rule:nonzero;stroke:none"
         id="path34" />
      <path
         d="m 642.598,1283.37 c -2.469,0 -4.825,-0.65 -7.039,-1.93 -2.231,-1.29 -3.957,-3.04 -5.207,-5.23 -1.25,-2.19 -1.868,-4.62 -1.868,-7.31 0,-3.98 1.379,-7.35 4.133,-10.09 2.766,-2.74 6.094,-4.11 9.981,-4.11 2.605,0 5.007,0.63 7.226,1.89 2.207,1.26 3.938,2.99 5.176,5.18 1.238,2.19 1.855,4.62 1.855,7.29 0,2.66 -0.617,5.06 -1.855,7.21 -1.238,2.15 -2.988,3.88 -5.234,5.17 -2.254,1.28 -4.637,1.93 -7.168,1.93 z m -0.149,3.26 c 5.078,0 9.328,-1.7 12.746,-5.08 3.418,-3.39 5.125,-7.56 5.125,-12.51 0,-4.9 -1.707,-9.06 -5.117,-12.48 -3.406,-3.41 -7.566,-5.11 -12.476,-5.11 -4.961,0 -9.164,1.69 -12.582,5.09 -3.415,3.4 -5.125,7.52 -5.125,12.35 0,3.22 0.781,6.2 2.335,8.95 1.563,2.75 3.68,4.89 6.368,6.46 2.695,1.55 5.601,2.33 8.726,2.33"
         style="fill:#040606;fill-opacity:1;fill-rule:nonzero;stroke:none"
         id="path36" />
      <path
         d="m 712.813,1280.16 -2.598,-2.45 c -1.863,1.83 -3.914,3.22 -6.145,4.16 -2.215,0.96 -4.382,1.43 -6.492,1.43 -2.629,0 -5.129,-0.64 -7.512,-1.93 -2.371,-1.29 -4.214,-3.04 -5.515,-5.26 -1.309,-2.2 -1.961,-4.54 -1.961,-7 0,-2.52 0.672,-4.91 2.027,-7.18 1.352,-2.27 3.215,-4.05 5.598,-5.35 2.39,-1.3 5,-1.95 7.844,-1.95 3.445,0 6.355,0.98 8.738,2.92 2.383,1.94 3.801,4.46 4.238,7.56 h -10.683 v 3.23 h 14.445 c -0.031,-5.18 -1.574,-9.29 -4.621,-12.33 -3.035,-3.04 -7.11,-4.56 -12.215,-4.56 -6.191,0 -11.098,2.1 -14.707,6.32 -2.785,3.26 -4.172,7.01 -4.172,11.27 0,3.18 0.801,6.14 2.395,8.87 1.589,2.72 3.777,4.86 6.558,6.41 2.778,1.54 5.918,2.31 9.426,2.31 2.844,0 5.508,-0.52 8.019,-1.54 2.5,-1.03 4.95,-2.67 7.333,-4.93"
         style="fill:#040606;fill-opacity:1;fill-rule:nonzero;stroke:none"
         id="path38" />
      <path
         d="m 747.742,1278.67 -5.73,-12.13 h 11.445 z m 0.434,7.11 15.613,-33.49 h -3.613 l -5.266,11.02 h -14.43 l -5.226,-11.02 h -3.731 l 15.832,33.49 h 0.821"
         style="fill:#040606;fill-opacity:1;fill-rule:nonzero;stroke:none"
         id="path40" />
      <path
         d="m 778.508,1252.29 v 33.49 h 0.722 l 22.293,-25.67 v 25.67 h 3.301 v -33.49 h -0.754 l -22.105,25.37 v -25.37 h -3.457"
         style="fill:#040606;fill-opacity:1;fill-rule:nonzero;stroke:none"
         id="path42" />
      <path
         d="m 846.418,1285.78 h 3.348 v -14.04 h 17.05 v 14.04 h 3.352 v -33.49 h -3.352 v 16.17 h -17.05 v -16.17 h -3.348 v 33.49"
         style="fill:#040606;fill-opacity:1;fill-rule:nonzero;stroke:none"
         id="path44" />
      <path
         d="m 890.48,1285.78 h 19.2 v -3.27 h -15.852 v -10.5 h 15.715 v -3.28 h -15.715 v -13.16 h 15.715 v -3.28 H 890.48 v 33.49"
         style="fill:#040606;fill-opacity:1;fill-rule:nonzero;stroke:none"
         id="path46" />
      <path
         d="m 937.98,1282.51 v -11.39 l 5.77,-0.05 c 2.227,0 3.887,0.22 4.961,0.64 1.062,0.43 1.902,1.1 2.512,2.04 0.593,0.93 0.894,1.97 0.894,3.13 0,1.13 -0.301,2.14 -0.918,3.06 -0.601,0.92 -1.402,1.57 -2.39,1.97 -0.989,0.39 -2.625,0.6 -4.922,0.6 z m -3.351,3.27 h 6.672 c 3.719,0 6.238,-0.15 7.554,-0.45 1.997,-0.46 3.618,-1.43 4.856,-2.93 1.25,-1.5 1.863,-3.34 1.863,-5.53 0,-1.82 -0.429,-3.43 -1.277,-4.81 -0.859,-1.39 -2.09,-2.43 -3.684,-3.13 -1.59,-0.72 -3.797,-1.08 -6.597,-1.09 l 12.039,-15.55 h -4.141 l -12.051,15.55 h -1.883 v -15.55 h -3.351 v 33.49"
         style="fill:#040606;fill-opacity:1;fill-rule:nonzero;stroke:none"
         id="path48" />
      <path
         d="m 978.469,1285.78 h 19.187 v -3.27 h -15.847 v -10.5 h 15.711 v -3.28 h -15.711 v -13.16 h 15.711 v -3.28 h -19.051 v 33.49"
         style="fill:#040606;fill-opacity:1;fill-rule:nonzero;stroke:none"
         id="path50" />
      <path
         d="m 1528.33,1341.49 c -1.39,-4.12 -3.03,-7.12 -4.92,-9.02 -1.9,-1.89 -6.68,-3.54 -14.37,-4.96 -7.67,-1.41 -15.78,-2.11 -24.33,-2.11 -13.42,0 -20.13,4.58 -20.13,13.76 0,2.57 0.71,7.42 2.14,14.58 l 12.31,61.98 c 0.72,3.59 1.08,6.15 1.08,7.71 0,1.42 -0.51,2.75 -1.52,3.97 5.6,2.11 9.5,3.16 11.68,3.16 2.6,0 3.91,-1.5 3.91,-4.49 0,-0.75 -0.69,-4.45 -2.08,-11.1 l -10.99,-55.36 c -1.6,-7.95 -2.4,-13.49 -2.4,-16.6 0,-5.26 5.84,-7.89 17.49,-7.89 10.4,0 21.1,2.13 32.13,6.37"
         style="fill:#040606;fill-opacity:1;fill-rule:nonzero;stroke:none"
         id="path52" />
      <path
         d="m 1552.95,1360.08 c 8.79,0.46 16.33,2.98 22.62,7.55 6.29,4.58 9.44,9.86 9.44,15.87 0,5.37 -2.4,8.05 -7.2,8.05 -5.72,0 -11,-3.06 -15.84,-9.19 -4.84,-6.13 -7.85,-13.56 -9.02,-22.28 z m -0.51,-6.07 c 0,-12.3 5.22,-18.45 15.65,-18.45 9.05,0 19.02,4.3 29.92,12.92 10.9,8.6 20.72,19.94 29.48,34 l 5.36,-2.96 c -8.24,-15.39 -18.96,-28.13 -32.16,-38.22 -13.19,-10.1 -25.7,-15.15 -37.53,-15.15 -7.57,0 -13.55,2.44 -17.95,7.33 -4.4,4.88 -6.6,11.55 -6.6,20.01 0,12.2 3.99,22.63 11.97,31.3 7.97,8.68 17.57,13.01 28.81,13.01 5.43,0 9.77,-1.36 13.03,-4.1 3.26,-2.73 4.89,-6.4 4.89,-10.98 0,-7.52 -4.53,-14.19 -13.6,-20 -9.06,-5.81 -19.49,-8.71 -31.27,-8.71"
         style="fill:#040606;fill-opacity:1;fill-rule:nonzero;stroke:none"
         id="path54" />
      <path
         d="m 1666.24,1352.73 c 1.13,-2.07 1.71,-3.87 1.71,-5.43 0,-4.13 -3.49,-8.68 -10.45,-13.67 -6.97,-4.98 -13.31,-7.48 -19.03,-7.48 -5.05,0 -9.17,2.26 -12.35,6.76 -3.17,4.5 -4.76,10.31 -4.76,17.42 0,7.91 2.08,19.17 6.25,33.77 l 2.9,10.61 h -10.67 c -4.46,0 -8.01,-0.64 -10.66,-1.9 2.44,4.44 4.45,7.22 6.05,8.34 1.61,1.14 4.32,1.7 8.15,1.7 h 9.53 l 1.27,4.37 c 1.93,6.5 4.24,10.96 6.93,13.39 2.7,2.43 6.74,3.64 12.13,3.64 0.63,0 1.64,-0.04 3.03,-0.13 -3.28,-4.22 -6.7,-11.31 -10.23,-21.27 h 33.34 c 5.83,0 10.3,0.76 13.37,2.28 -1.05,-4.31 -2.46,-7.13 -4.2,-8.45 -1.74,-1.32 -5,-1.97 -9.75,-1.97 h -35.48 c -0.41,-1.39 -0.73,-2.42 -0.94,-3.1 -5.09,-17.33 -7.63,-30.42 -7.63,-39.26 0,-9.76 3.5,-14.64 10.53,-14.64 3.63,0 7.57,1.54 11.84,4.6 4.27,3.08 7.31,6.55 9.12,10.42"
         style="fill:#040606;fill-opacity:1;fill-rule:nonzero;stroke:none"
         id="path56" />
      <path
         d="m 1724.51,1398.55 c -1.43,-0.5 -2.65,-0.76 -3.67,-0.76 -3.19,0 -4.98,2.68 -5.35,8.02 l -0.32,4.92 c -0.68,9.81 -2.43,16.06 -5.25,18.75 3.24,1.73 6.7,2.59 10.35,2.59 4.68,0 7.02,-1.49 7.02,-4.48 0,-0.8 -0.39,-3.01 -1.14,-6.63 l -0.82,-4.1 c -1.52,-7.28 -2.27,-11.98 -2.27,-14.08 0,-1.6 0.48,-3 1.45,-4.23"
         style="fill:#040606;fill-opacity:1;fill-rule:nonzero;stroke:none"
         id="path58" />
      <path
         d="m 1759.53,1344.27 c -12.38,-6.64 -18.56,-11.8 -18.56,-15.46 0,-3.45 2.51,-5.18 7.51,-5.18 3.71,0 6.72,1.25 9.02,3.75 2.32,2.51 3.48,5.74 3.48,9.7 0,2.35 -0.49,4.76 -1.45,7.19 z m 10.72,5.68 c 1.43,-3.19 2.15,-6.25 2.15,-9.15 0,-6.43 -2.69,-12.05 -8.08,-16.83 -5.38,-4.77 -11.7,-7.15 -18.93,-7.15 -4.26,0 -7.87,1.09 -10.86,3.28 -2.99,2.19 -4.48,4.81 -4.48,7.89 0,3.28 2.05,6.6 6.15,9.97 4.11,3.37 10.97,7.36 20.62,11.99 l -5.06,8.15 c -6.14,9.89 -9.22,17.6 -9.22,23.16 0,8 4.66,14.43 13.95,19.32 5.73,-2.19 8.59,-4.95 8.59,-8.28 0,-4.7 -3.63,-9.23 -10.92,-13.56 l 7.2,-13.26 5.61,-10.23 c 8.04,4.8 14.1,8.92 18.19,12.35 4.08,3.43 9.23,8.72 15.47,15.87 l 5.03,-3.09 c -9.04,-12.12 -20.85,-22.26 -35.41,-30.43"
         style="fill:#040606;fill-opacity:1;fill-rule:nonzero;stroke:none"
         id="path60" />
      <path
         d="m 1872.71,1407.96 -13.08,-11.55 c -4.59,6.39 -9.28,9.6 -14.04,9.6 -2.32,0 -4.22,-0.63 -5.69,-1.87 -1.48,-1.24 -2.21,-2.64 -2.21,-4.2 0,-1.55 0.52,-3.03 1.58,-4.41 1.43,-1.86 5.75,-5.83 12.96,-11.94 6.74,-5.63 10.84,-9.19 12.26,-10.66 3.59,-3.62 6.13,-7.08 7.62,-10.38 1.5,-3.31 2.25,-6.92 2.25,-10.83 0,-7.62 -2.63,-13.91 -7.9,-18.87 -5.27,-4.97 -12.13,-7.45 -20.6,-7.45 -6.61,0 -12.37,1.62 -17.29,4.86 -4.9,3.24 -9.1,8.33 -12.59,15.28 l 14.85,8.96 c 4.46,-8.21 9.61,-12.31 15.42,-12.31 3.04,0 5.59,0.89 7.66,2.65 2.06,1.77 3.09,3.81 3.09,6.13 0,2.1 -0.78,4.2 -2.33,6.31 -1.56,2.09 -5,5.32 -10.31,9.65 -10.12,8.25 -16.65,14.61 -19.61,19.1 -2.95,4.48 -4.42,8.95 -4.42,13.41 0,6.44 2.45,11.97 7.37,16.57 4.9,4.61 10.95,6.91 18.16,6.91 4.63,0 9.04,-1.07 13.24,-3.21 4.19,-2.15 8.73,-6.07 13.61,-11.75"
         style="fill:#040606;fill-opacity:1;fill-rule:nonzero;stroke:none"
         id="path62" />
      <path
         d="m 1892.64,1420.59 h 17.93 v -35.03 h 30.99 v 35.03 h 17.85 v -92.86 h -17.85 v 40.72 h -30.99 v -40.72 h -17.93 v 92.86"
         style="fill:#040606;fill-opacity:1;fill-rule:nonzero;stroke:none"
         id="path64" />
      <path
         d="m 2025.06,1405.62 c -8.6,0 -15.82,-2.98 -21.68,-8.96 -5.86,-5.98 -8.78,-13.56 -8.78,-22.78 0,-10.28 3.68,-18.39 11.05,-24.37 5.74,-4.67 12.3,-7 19.72,-7 8.38,0 15.53,3.03 21.43,9.08 5.89,6.07 8.83,13.54 8.83,22.41 0,8.84 -2.96,16.32 -8.9,22.45 -5.95,6.12 -13.17,9.17 -21.67,9.17 z m 0.18,17.3 c 13.14,0 24.44,-4.76 33.89,-14.27 9.45,-9.5 14.18,-21.1 14.18,-34.77 0,-13.56 -4.66,-25.02 -13.99,-34.41 -9.33,-9.38 -20.65,-14.07 -33.95,-14.07 -13.94,0 -25.52,4.81 -34.74,14.45 -9.22,9.64 -13.83,21.09 -13.83,34.34 0,8.88 2.15,17.04 6.44,24.49 4.3,7.45 10.2,13.35 17.72,17.71 7.52,4.35 15.6,6.53 24.28,6.53"
         style="fill:#040606;fill-opacity:1;fill-rule:nonzero;stroke:none"
         id="path66" />
      <path
         d="m 2107.72,1384.29 h 5.62 c 4.41,0 7.49,0.32 9.22,0.95 1.72,0.64 3.08,1.68 4.06,3.14 1,1.45 1.49,3.21 1.49,5.28 0,3.6 -1.39,6.21 -4.16,7.85 -2.03,1.23 -5.77,1.84 -11.24,1.84 h -4.99 z m -17.67,36.3 h 18.74 c 10.15,0 17.46,-0.94 21.94,-2.82 4.48,-1.86 8.02,-4.9 10.6,-9.08 2.6,-4.19 3.88,-9.21 3.88,-15.06 0,-6.48 -1.69,-11.86 -5.07,-16.16 -3.39,-4.29 -7.99,-7.27 -13.79,-8.95 -3.42,-0.98 -9.62,-1.46 -18.63,-1.46 v -39.33 h -17.67 v 92.86"
         style="fill:#040606;fill-opacity:1;fill-rule:nonzero;stroke:none"
         id="path68" />
      <path
         d="m 1564.88,1258.28 2.85,1.71 c 2.01,-3.69 4.32,-5.54 6.95,-5.54 1.12,0 2.18,0.27 3.17,0.79 0.98,0.52 1.74,1.22 2.25,2.1 0.52,0.89 0.78,1.82 0.78,2.81 0,1.12 -0.39,2.22 -1.14,3.3 -1.05,1.49 -2.96,3.28 -5.74,5.38 -2.8,2.11 -4.54,3.63 -5.22,4.57 -1.18,1.58 -1.77,3.29 -1.77,5.13 0,1.45 0.34,2.78 1.04,3.98 0.7,1.2 1.69,2.15 2.95,2.84 1.27,0.69 2.65,1.04 4.14,1.04 1.58,0 3.04,-0.39 4.43,-1.18 1.37,-0.79 2.82,-2.22 4.36,-4.31 l -2.74,-2.08 c -1.26,1.67 -2.33,2.77 -3.22,3.31 -0.88,0.53 -1.86,0.79 -2.9,0.79 -1.36,0 -2.45,-0.41 -3.31,-1.23 -0.86,-0.82 -1.29,-1.83 -1.29,-3.03 l 0.45,-2.12 1.66,-2.22 c 0.45,-0.43 1.89,-1.55 4.33,-3.35 2.89,-2.14 4.89,-4.05 5.96,-5.72 1.09,-1.67 1.62,-3.35 1.62,-5.04 0,-2.43 -0.92,-4.54 -2.76,-6.32 -1.85,-1.8 -4.09,-2.69 -6.73,-2.69 -2.03,0 -3.89,0.54 -5.54,1.62 -1.65,1.1 -3.17,2.91 -4.58,5.46"
         style="fill:#040606;fill-opacity:1;fill-rule:nonzero;stroke:none"
         id="path70" />
      <path
         d="m 1602.34,1285.54 h 3.34 v -30.27 h 12.89 v -3.23 h -16.23 v 33.5"
         style="fill:#040606;fill-opacity:1;fill-rule:nonzero;stroke:none"
         id="path72" />
      <path
         d="m 1652.43,1283.12 c -2.47,0 -4.83,-0.64 -7.04,-1.93 -2.23,-1.29 -3.96,-3.04 -5.2,-5.22 -1.25,-2.19 -1.87,-4.62 -1.87,-7.32 0,-3.97 1.37,-7.34 4.13,-10.09 2.76,-2.73 6.09,-4.11 9.98,-4.11 2.61,0 5.01,0.64 7.22,1.9 2.22,1.26 3.94,2.99 5.17,5.17 1.25,2.19 1.87,4.62 1.87,7.3 0,2.65 -0.62,5.06 -1.87,7.21 -1.23,2.14 -2.97,3.87 -5.23,5.16 -2.25,1.29 -4.63,1.93 -7.16,1.93 z m -0.14,3.27 c 5.07,0 9.31,-1.7 12.73,-5.08 3.42,-3.39 5.14,-7.56 5.14,-12.51 0,-4.9 -1.71,-9.06 -5.12,-12.48 -3.42,-3.41 -7.58,-5.12 -12.48,-5.12 -4.96,0 -9.16,1.7 -12.58,5.1 -3.42,3.4 -5.13,7.52 -5.13,12.34 0,3.23 0.78,6.2 2.34,8.96 1.56,2.74 3.68,4.89 6.36,6.45 2.7,1.56 5.61,2.34 8.74,2.34"
         style="fill:#040606;fill-opacity:1;fill-rule:nonzero;stroke:none"
         id="path74" />
      <path
         d="m 1722.64,1279.91 -2.6,-2.45 c -1.86,1.84 -3.91,3.22 -6.13,4.17 -2.23,0.96 -4.4,1.43 -6.51,1.43 -2.61,0 -5.11,-0.65 -7.5,-1.94 -2.38,-1.29 -4.22,-3.03 -5.52,-5.25 -1.3,-2.21 -1.96,-4.54 -1.96,-7 0,-2.52 0.68,-4.91 2.03,-7.18 1.35,-2.28 3.22,-4.05 5.6,-5.35 2.39,-1.3 4.99,-1.96 7.84,-1.96 3.44,0 6.36,0.98 8.74,2.92 2.38,1.95 3.8,4.47 4.23,7.56 h -10.67 v 3.24 h 14.44 c -0.04,-5.18 -1.57,-9.29 -4.62,-12.34 -3.04,-3.04 -7.12,-4.56 -12.22,-4.56 -6.19,0 -11.09,2.11 -14.7,6.33 -2.79,3.25 -4.17,7 -4.17,11.27 0,3.17 0.79,6.13 2.39,8.87 1.59,2.72 3.78,4.86 6.56,6.4 2.77,1.55 5.92,2.32 9.42,2.32 2.85,0 5.51,-0.52 8.02,-1.55 2.5,-1.02 4.94,-2.66 7.33,-4.93"
         style="fill:#040606;fill-opacity:1;fill-rule:nonzero;stroke:none"
         id="path76" />
      <path
         d="m 1757.58,1278.43 -5.74,-12.13 h 11.45 z m 0.43,7.11 15.61,-33.5 h -3.61 l -5.26,11.03 h -14.44 l -5.22,-11.03 h -3.73 l 15.83,33.5 h 0.82"
         style="fill:#040606;fill-opacity:1;fill-rule:nonzero;stroke:none"
         id="path78" />
      <path
         d="m 1788.34,1252.04 v 33.5 h 0.72 l 22.3,-25.68 v 25.68 h 3.3 v -33.5 h -0.75 l -22.11,25.37 v -25.37 h -3.46"
         style="fill:#040606;fill-opacity:1;fill-rule:nonzero;stroke:none"
         id="path80" />
      <path
         d="m 1856.25,1285.54 h 3.34 v -14.05 h 17.06 v 14.05 h 3.35 v -33.5 h -3.35 v 16.17 h -17.06 v -16.17 h -3.34 v 33.5"
         style="fill:#040606;fill-opacity:1;fill-rule:nonzero;stroke:none"
         id="path82" />
      <path
         d="m 1900.31,1285.54 h 19.2 v -3.27 h -15.86 v -10.5 h 15.73 v -3.28 h -15.73 v -13.17 h 15.73 v -3.28 h -19.07 v 33.5"
         style="fill:#040606;fill-opacity:1;fill-rule:nonzero;stroke:none"
         id="path84" />
      <path
         d="m 1947.81,1282.27 v -11.39 l 5.76,-0.05 c 2.24,0 3.89,0.21 4.97,0.63 1.07,0.43 1.91,1.11 2.51,2.05 0.6,0.92 0.9,1.97 0.9,3.13 0,1.12 -0.31,2.14 -0.91,3.06 -0.61,0.92 -1.41,1.57 -2.4,1.97 -0.98,0.39 -2.62,0.6 -4.93,0.6 z m -3.36,3.27 h 6.68 c 3.71,0 6.24,-0.15 7.56,-0.45 1.99,-0.46 3.61,-1.44 4.85,-2.93 1.25,-1.51 1.87,-3.34 1.87,-5.54 0,-1.82 -0.43,-3.43 -1.29,-4.8 -0.86,-1.39 -2.08,-2.44 -3.67,-3.14 -1.6,-0.71 -3.8,-1.07 -6.6,-1.08 l 12.04,-15.56 h -4.14 l -12.05,15.56 h -1.89 v -15.56 h -3.36 v 33.5"
         style="fill:#040606;fill-opacity:1;fill-rule:nonzero;stroke:none"
         id="path86" />
      <path
         d="m 1988.3,1285.54 h 19.19 v -3.27 h -15.85 v -10.5 h 15.71 v -3.28 h -15.71 v -13.17 h 15.71 v -3.28 h -19.05 v 33.5"
         style="fill:#040606;fill-opacity:1;fill-rule:nonzero;stroke:none"
         id="path88" />
      <path
         d="m 462.805,445.09 c -6.379,-1.551 -11.418,-4.961 -15.102,-10.27 -3.687,-5.3 -5.547,-11.808 -5.547,-19.55 0,-8.629 2.512,-15.739 7.524,-21.34 5.008,-5.602 11.406,-8.399 19.168,-8.41 9.316,0.011 17.531,4.41 24.648,13.218 7.117,8.801 10.684,18.981 10.692,30.551 -0.008,6.742 -1.778,12.391 -5.309,16.973 -3.535,4.578 -7.902,6.867 -13.086,6.867 -5.258,0 -9.816,-2.141 -13.676,-6.41 -3.863,-4.278 -5.789,-9.36 -5.789,-15.231 0,-4.148 0.977,-7.976 2.949,-11.488 -3.925,0.711 -6.543,1.77 -7.851,3.172 -1.321,1.387 -1.973,3.867 -1.973,7.41 0,4.629 1.113,9.449 3.352,14.508 z m 4.109,5.851 c 5.547,7.411 12.859,11.118 21.941,11.118 7.766,0 14.172,-2.821 19.211,-8.469 5.047,-5.629 7.571,-12.789 7.571,-21.449 0,-13.5 -5.434,-25.801 -16.282,-36.903 -10.847,-11.097 -22.863,-16.656 -36.035,-16.656 -9.492,0 -17.324,3.148 -23.496,9.438 -6.179,6.281 -9.265,14.242 -9.265,23.859 0,10.461 3.523,19.473 10.562,27.031 7.055,7.551 15.649,11.559 25.793,12.031"
         style="fill:#040606;fill-opacity:1;fill-rule:nonzero;stroke:none"
         id="path90" />
      <path
         d="m 548.418,399.852 c 12.703,26.898 24.133,40.347 34.27,40.347 7.91,0 11.863,-7.89 11.863,-23.64 l 0.105,-6.489 c 0,-7.519 0.395,-12.73 1.157,-15.609 0.769,-2.879 2.175,-4.32 4.214,-4.32 3.086,0 6.582,2.449 10.5,7.347 3.926,4.91 10.313,14.782 19.153,29.602 l 4.508,-2.629 c -7.872,-14.859 -14.93,-25.902 -21.161,-33.082 -6.23,-7.207 -11.816,-10.797 -16.757,-10.797 -4.54,0 -7.747,2.199 -9.59,6.598 -1.836,4.41 -2.762,12.031 -2.762,22.89 l -0.051,4.61 c 0,5.879 -0.383,10 -1.133,12.379 -0.754,2.382 -2.058,3.57 -3.918,3.57 -4.722,0 -12.332,-9.43 -22.832,-28.297 -2.578,-4.621 -4.238,-7.594 -4.988,-8.922 -2.766,-4.801 -4.141,-8.262 -4.141,-10.41 l 0.704,-2.48 c -2.079,-0.86 -3.836,-1.29 -5.262,-1.29 -3.625,0 -5.434,2.008 -5.434,6.008 0,1.16 0.473,6.313 1.399,15.473 l 1.179,11.66 c 0.539,4.938 0.813,8.77 0.813,11.5 0,3.801 -0.859,6.777 -2.578,8.969 0.754,0.25 2.004,0.68 3.762,1.289 2.214,0.781 3.992,1.172 5.308,1.172 2.797,0 4.192,-2.031 4.192,-6.11 0,-2.152 -0.262,-5.839 -0.801,-11.07 -0.11,-1.152 -0.215,-2.242 -0.324,-3.281 l -1.395,-14.988"
         style="fill:#040606;fill-opacity:1;fill-rule:nonzero;stroke:none"
         id="path92" />
      <path
         d="m 679.043,424.352 c -7.41,-14.071 -14.855,-25.114 -22.344,-33.114 -7.48,-8.008 -14.101,-12.008 -19.875,-12.008 -4.187,0 -7.566,1.622 -10.144,4.86 -2.578,3.242 -3.867,7.48 -3.867,12.711 0,2.937 0.539,7.09 1.613,12.461 l 10.679,53.816 c -1.394,-0.219 -2.605,-0.328 -3.652,-0.328 -8.23,0 -12.351,3.441 -12.351,10.32 v 1.239 c 4.296,-2.438 9.152,-3.661 14.558,-3.661 5.403,0 10.129,1.34 14.184,4.032 l -12.461,-64.61 c -1.113,-5.8 -1.672,-9.8 -1.672,-11.98 0,-6.059 2.227,-9.078 6.66,-9.078 4.297,0 8.621,2.429 12.969,7.277 4.355,4.852 11.496,15.18 21.406,31.012 l 4.297,-2.949"
         style="fill:#040606;fill-opacity:1;fill-rule:nonzero;stroke:none"
         id="path94" />
      <path
         d="m 674.277,451.57 0.75,-0.05 c 2.407,0.109 5.852,1.312 10.344,3.628 4.492,2.313 8.008,4.661 10.559,7.071 -1.582,-4.938 -4.375,-9.09 -8.379,-12.41 -6.098,-5.079 -10.207,-7.629 -12.356,-7.629 -1.433,0 -2.148,0.879 -2.148,2.629 0,2.5 0.41,4.761 1.23,6.761 z m 47.801,-27.039 C 713.992,410.34 705.813,399.25 697.539,391.238 689.27,383.23 681.836,379.23 675.242,379.23 c -4.004,0 -7.234,1.309 -9.683,3.918 -2.461,2.622 -3.684,6.063 -3.684,10.321 0,1.613 0.352,4.179 1.074,7.679 l 1.184,5.911 c 1.746,8.531 2.625,14.5 2.625,17.953 0,2.039 -0.606,3.699 -1.824,4.988 4.656,1.07 7.578,1.609 8.757,1.609 2.649,0 3.977,-1.847 3.977,-5.57 0,-2.769 -0.52,-6.707 -1.563,-11.867 l -2.089,-10.461 c -1.047,-5.051 -1.567,-8.32 -1.567,-9.82 0,-4.442 1.887,-6.653 5.649,-6.653 4.468,0 10.437,3.774 17.879,11.301 7.453,7.52 14.668,17.07 21.652,28.621 l 4.449,-2.629"
         style="fill:#040606;fill-opacity:1;fill-rule:nonzero;stroke:none"
         id="path96" />
      <path
         d="m 725.117,399.852 c 12.703,26.898 24.129,40.347 34.27,40.347 7.91,0 11.863,-7.89 11.863,-23.64 l 0.105,-6.489 c 0,-7.519 0.391,-12.73 1.157,-15.609 0.769,-2.879 2.176,-4.32 4.218,-4.32 3.083,0 6.583,2.449 10.497,7.347 3.925,4.91 10.312,14.782 19.152,29.602 l 4.512,-2.629 c -7.871,-14.859 -14.934,-25.902 -21.164,-33.082 -6.231,-7.207 -11.817,-10.797 -16.758,-10.797 -4.539,0 -7.742,2.199 -9.59,6.598 -1.836,4.41 -2.766,12.031 -2.766,22.89 l -0.047,4.61 c 0,5.879 -0.378,10 -1.132,12.379 -0.75,2.382 -2.063,3.57 -3.914,3.57 -4.727,0 -12.336,-9.43 -22.832,-28.297 -2.583,-4.621 -4.243,-7.594 -4.993,-8.922 -2.761,-4.801 -4.14,-8.262 -4.14,-10.41 l 0.703,-2.48 c -2.078,-0.86 -3.836,-1.29 -5.266,-1.29 -3.621,0 -5.429,2.008 -5.429,6.008 0,1.16 0.468,6.313 1.398,15.473 l 1.184,11.66 c 0.535,4.938 0.808,8.77 0.808,11.5 0,3.801 -0.859,6.777 -2.578,8.969 0.754,0.25 2.004,0.68 3.762,1.289 2.215,0.781 3.992,1.172 5.308,1.172 2.793,0 4.192,-2.031 4.192,-6.11 0,-2.152 -0.266,-5.839 -0.801,-11.07 -0.106,-1.152 -0.215,-2.242 -0.32,-3.281 l -1.399,-14.988"
         style="fill:#040606;fill-opacity:1;fill-rule:nonzero;stroke:none"
         id="path98" />
      <path
         d="m 807.461,408.102 c 7.488,0.386 13.906,2.527 19.258,6.418 5.351,3.902 8.027,8.39 8.027,13.5 0,4.57 -2.043,6.851 -6.125,6.851 -4.859,0 -9.363,-2.601 -13.476,-7.812 -4.122,-5.207 -6.676,-11.539 -7.684,-18.957 z m -0.43,-5.161 c 0,-10.472 4.446,-15.703 13.321,-15.703 7.707,0 16.191,3.66 25.461,10.981 9.277,7.332 17.632,16.98 25.085,28.941 l 4.563,-2.519 c -7.016,-13.102 -16.137,-23.942 -27.363,-32.52 -11.223,-8.59 -21.868,-12.891 -31.938,-12.891 -6.441,0 -11.531,2.079 -15.269,6.231 -3.75,4.16 -5.618,9.828 -5.618,17.027 0,10.383 3.387,19.274 10.176,26.641 6.785,7.371 14.961,11.07 24.524,11.07 4.617,0 8.308,-1.168 11.09,-3.488 2.777,-2.34 4.164,-5.441 4.164,-9.352 0,-6.398 -3.86,-12.078 -11.575,-17.019 -7.722,-4.93 -16.589,-7.399 -26.621,-7.399"
         style="fill:#040606;fill-opacity:1;fill-rule:nonzero;stroke:none"
         id="path100" />
      <path
         d="m 930.234,448.84 -11.132,-9.828 c -3.914,5.437 -7.891,8.168 -11.954,8.168 -1.972,0 -3.585,-0.532 -4.835,-1.578 -1.258,-1.063 -1.883,-2.25 -1.883,-3.582 0,-1.329 0.449,-2.579 1.347,-3.758 1.211,-1.571 4.895,-4.961 11.028,-10.141 5.742,-4.812 9.215,-7.84 10.437,-9.09 3.047,-3.07 5.203,-6.019 6.485,-8.832 1.269,-2.82 1.906,-5.879 1.906,-9.211 0,-6.488 -2.238,-11.84 -6.723,-16.058 -4.48,-4.231 -10.32,-6.348 -17.527,-6.348 -5.625,0 -10.528,1.387 -14.707,4.137 -4.168,2.761 -7.754,7.09 -10.723,13 l 12.637,7.633 c 3.808,-6.981 8.183,-10.473 13.125,-10.473 2.59,0 4.758,0.742 6.515,2.25 1.754,1.5 2.633,3.242 2.633,5.211 0,1.789 -0.664,3.59 -1.992,5.371 -1.324,1.789 -4.246,4.527 -8.766,8.23 -8.617,7.008 -14.171,12.43 -16.679,16.239 -2.512,3.808 -3.774,7.609 -3.774,11.41 0,5.48 2.09,10.18 6.274,14.101 4.168,3.918 9.324,5.879 15.457,5.879 3.945,0 7.695,-0.922 11.269,-2.73 3.567,-1.84 7.422,-5.16 11.582,-10"
         style="fill:#040606;fill-opacity:1;fill-rule:nonzero;stroke:none"
         id="path102" />
      <path
         d="m 947.617,459.578 h 15.254 v -29.797 h 26.375 v 29.797 h 15.194 v -78.996 h -15.194 v 34.637 h -26.375 v -34.637 h -15.254 v 78.996"
         style="fill:#040606;fill-opacity:1;fill-rule:nonzero;stroke:none"
         id="path104" />
      <path
         d="m 1053.71,446.859 c -7.31,0 -13.46,-2.539 -18.44,-7.629 -4.99,-5.089 -7.48,-11.539 -7.48,-19.398 0,-8.73 3.14,-15.641 9.42,-20.723 4.87,-3.98 10.47,-5.968 16.77,-5.968 7.13,0 13.21,2.578 18.23,7.738 5.02,5.16 7.53,11.512 7.53,19.07 0,7.52 -2.53,13.883 -7.59,19.09 -5.05,5.211 -11.2,7.82 -18.44,7.82 z m 0.17,14.711 c 11.17,0 20.78,-4.039 28.83,-12.14 8.04,-8.09 12.07,-17.961 12.07,-29.598 0,-11.523 -3.98,-21.281 -11.91,-29.262 -7.94,-7.988 -17.57,-11.988 -28.89,-11.988 -11.86,0 -21.71,4.109 -29.56,12.309 -7.85,8.199 -11.77,17.941 -11.77,29.218 0,7.563 1.82,14.5 5.48,20.84 3.66,6.34 8.68,11.352 15.07,15.071 6.4,3.699 13.29,5.55 20.68,5.55"
         style="fill:#040606;fill-opacity:1;fill-rule:nonzero;stroke:none"
         id="path106" />
      <path
         d="m 1120.46,428.699 h 4.77 c 3.76,0 6.38,0.27 7.85,0.813 1.47,0.539 2.62,1.429 3.46,2.668 0.84,1.242 1.26,2.73 1.26,4.5 0,3.05 -1.18,5.269 -3.54,6.679 -1.72,1.039 -4.9,1.563 -9.56,1.563 h -4.24 z m -15.04,30.879 h 15.95 c 8.63,0 14.85,-0.789 18.66,-2.379 3.82,-1.59 6.83,-4.168 9.02,-7.738 2.21,-3.563 3.31,-7.832 3.31,-12.813 0,-5.519 -1.44,-10.097 -4.32,-13.75 -2.88,-3.648 -6.8,-6.187 -11.74,-7.628 -2.9,-0.821 -8.18,-1.239 -15.84,-1.239 v -33.449 h -15.04 v 78.996"
         style="fill:#040606;fill-opacity:1;fill-rule:nonzero;stroke:none"
         id="path108" />
      <path
         d="m 555.059,321.129 2.839,1.711 c 2.004,-3.692 4.321,-5.539 6.946,-5.539 1.133,0 2.187,0.269 3.176,0.801 0.984,0.507 1.738,1.218 2.246,2.097 0.515,0.883 0.781,1.813 0.781,2.801 0,1.121 -0.383,2.219 -1.145,3.301 -1.047,1.488 -2.961,3.277 -5.73,5.379 -2.805,2.109 -4.543,3.629 -5.227,4.57 -1.179,1.582 -1.765,3.289 -1.765,5.129 0,1.453 0.34,2.781 1.043,3.98 0.695,1.2 1.679,2.153 2.949,2.84 1.269,0.692 2.644,1.039 4.133,1.039 1.582,0 3.054,-0.386 4.429,-1.168 1.371,-0.789 2.825,-2.23 4.36,-4.32 l -2.739,-2.078 c -1.257,1.668 -2.332,2.769 -3.218,3.308 -0.879,0.532 -1.86,0.79 -2.903,0.79 -1.347,0 -2.453,-0.411 -3.308,-1.231 -0.863,-0.82 -1.289,-1.828 -1.289,-3.027 l 0.457,-2.121 1.66,-2.219 c 0.437,-0.434 1.887,-1.551 4.324,-3.352 2.902,-2.14 4.895,-4.039 5.969,-5.711 1.074,-1.668 1.621,-3.347 1.621,-5.039 0,-2.441 -0.93,-4.539 -2.773,-6.332 -1.844,-1.797 -4.082,-2.687 -6.727,-2.687 -2.031,0 -3.879,0.539 -5.539,1.621 -1.649,1.098 -3.176,2.91 -4.57,5.457"
         style="fill:#040606;fill-opacity:1;fill-rule:nonzero;stroke:none"
         id="path110" />
      <path
         d="m 592.512,348.391 h 3.347 v -30.27 h 12.891 v -3.23 h -16.238 v 33.5"
         style="fill:#040606;fill-opacity:1;fill-rule:nonzero;stroke:none"
         id="path112" />
      <path
         d="m 642.598,345.98 c -2.469,0 -4.825,-0.648 -7.039,-1.941 -2.231,-1.289 -3.957,-3.027 -5.207,-5.219 -1.25,-2.191 -1.868,-4.621 -1.868,-7.32 0,-3.969 1.379,-7.34 4.133,-10.078 2.766,-2.742 6.094,-4.121 9.981,-4.121 2.605,0 5.007,0.64 7.226,1.898 2.207,1.262 3.938,2.992 5.176,5.172 1.238,2.188 1.855,4.617 1.855,7.301 0,2.66 -0.617,5.058 -1.855,7.207 -1.238,2.152 -2.988,3.871 -5.234,5.16 -2.254,1.293 -4.637,1.941 -7.168,1.941 z m -0.149,3.258 c 5.078,0 9.328,-1.699 12.746,-5.078 3.418,-3.39 5.125,-7.558 5.125,-12.512 0,-4.898 -1.707,-9.058 -5.117,-12.476 -3.406,-3.41 -7.566,-5.121 -12.476,-5.121 -4.961,0 -9.164,1.699 -12.582,5.097 -3.415,3.403 -5.125,7.524 -5.125,12.34 0,3.231 0.781,6.211 2.335,8.961 1.563,2.742 3.68,4.891 6.368,6.449 2.695,1.563 5.601,2.34 8.726,2.34"
         style="fill:#040606;fill-opacity:1;fill-rule:nonzero;stroke:none"
         id="path114" />
      <path
         d="m 712.813,342.762 -2.598,-2.453 c -1.863,1.839 -3.914,3.23 -6.145,4.171 -2.215,0.961 -4.382,1.43 -6.492,1.43 -2.629,0 -5.129,-0.648 -7.512,-1.941 -2.371,-1.278 -4.214,-3.028 -5.515,-5.25 -1.309,-2.207 -1.961,-4.539 -1.961,-7 0,-2.52 0.672,-4.91 2.027,-7.18 1.352,-2.269 3.215,-4.051 5.598,-5.348 2.39,-1.3 5,-1.953 7.844,-1.953 3.445,0 6.355,0.973 8.738,2.922 2.383,1.942 3.801,4.461 4.238,7.551 h -10.683 v 3.238 h 14.445 c -0.031,-5.179 -1.574,-9.289 -4.621,-12.34 -3.035,-3.027 -7.11,-4.558 -12.215,-4.558 -6.191,0 -11.098,2.109 -14.707,6.328 -2.785,3.25 -4.172,7 -4.172,11.269 0,3.172 0.801,6.133 2.395,8.872 1.589,2.718 3.777,4.859 6.558,6.402 2.778,1.547 5.918,2.316 9.426,2.316 2.844,0 5.508,-0.519 8.019,-1.539 2.5,-1.027 4.95,-2.668 7.333,-4.937"
         style="fill:#040606;fill-opacity:1;fill-rule:nonzero;stroke:none"
         id="path116" />
      <path
         d="m 747.742,341.281 -5.73,-12.133 h 11.445 z m 0.434,7.11 15.613,-33.5 h -3.613 l -5.266,11.031 h -14.43 l -5.226,-11.031 h -3.731 l 15.832,33.5 h 0.821"
         style="fill:#040606;fill-opacity:1;fill-rule:nonzero;stroke:none"
         id="path118" />
      <path
         d="m 778.508,314.891 v 33.5 h 0.722 l 22.293,-25.68 v 25.68 h 3.301 v -33.5 h -0.754 l -22.105,25.371 v -25.371 h -3.457"
         style="fill:#040606;fill-opacity:1;fill-rule:nonzero;stroke:none"
         id="path120" />
      <path
         d="m 846.418,348.391 h 3.348 v -14.039 h 17.05 v 14.039 h 3.352 v -33.5 h -3.352 v 16.168 h -17.05 v -16.168 h -3.348 v 33.5"
         style="fill:#040606;fill-opacity:1;fill-rule:nonzero;stroke:none"
         id="path122" />
      <path
         d="m 890.48,348.391 h 19.2 v -3.27 h -15.852 v -10.5 h 15.715 v -3.281 h -15.715 v -13.168 h 15.715 v -3.281 H 890.48 v 33.5"
         style="fill:#040606;fill-opacity:1;fill-rule:nonzero;stroke:none"
         id="path124" />
      <path
         d="M 937.98,345.121 V 333.73 l 5.77,-0.05 c 2.227,0 3.887,0.218 4.961,0.64 1.062,0.43 1.902,1.102 2.512,2.039 0.593,0.93 0.894,1.969 0.894,3.129 0,1.133 -0.301,2.141 -0.918,3.063 -0.601,0.918 -1.402,1.57 -2.39,1.969 -0.989,0.39 -2.625,0.601 -4.922,0.601 z m -3.351,3.27 h 6.672 c 3.719,0 6.238,-0.153 7.554,-0.45 1.997,-0.461 3.618,-1.441 4.856,-2.929 1.25,-1.5 1.863,-3.34 1.863,-5.543 0,-1.809 -0.429,-3.43 -1.277,-4.797 -0.859,-1.391 -2.09,-2.434 -3.684,-3.141 -1.59,-0.711 -3.797,-1.07 -6.597,-1.082 l 12.039,-15.558 h -4.141 l -12.051,15.558 h -1.883 v -15.558 h -3.351 v 33.5"
         style="fill:#040606;fill-opacity:1;fill-rule:nonzero;stroke:none"
         id="path126" />
      <path
         d="m 978.469,348.391 h 19.187 v -3.27 h -15.847 v -10.5 h 15.711 v -3.281 h -15.711 v -13.168 h 15.711 v -3.281 h -19.051 v 33.5"
         style="fill:#040606;fill-opacity:1;fill-rule:nonzero;stroke:none"
         id="path128" />
      <path
         d="m 1447.32,491.25 v -28.84 c 1.95,1.981 4.35,3.551 7.21,4.68 2.91,1.14 5.86,1.711 8.86,1.711 16.22,0 24.34,-9.5 24.34,-28.52 v -38.82 l -20.23,-0.051 v 37.488 c 0,3.872 -0.89,6.782 -2.66,8.723 -1.77,1.938 -4.25,2.91 -7.46,2.91 -3.12,0 -5.56,-0.972 -7.34,-2.91 -1.81,-1.941 -2.72,-4.851 -2.72,-8.723 v -37.437 l -20.23,-0.121 v 89.84 l 20.23,0.07"
         style="fill:#040606;fill-opacity:1;fill-rule:nonzero;stroke:none"
         id="path130" />
      <path
         d="m 1516.07,442.371 c -1.56,-2.492 -2.33,-5.199 -2.33,-8.152 0,-4.469 1.69,-8.328 5.06,-11.571 3.33,-3.207 7.27,-4.808 11.83,-4.808 4.58,0 8.55,1.601 11.87,4.808 3.38,3.243 5.06,7.102 5.06,11.571 0,2.953 -0.78,5.66 -2.34,8.152 -1.55,2.488 -3.64,4.469 -6.26,5.938 -2.57,1.441 -5.35,2.16 -8.33,2.16 -2.92,0 -5.68,-0.719 -8.29,-2.16 -2.61,-1.469 -4.7,-3.45 -6.27,-5.938 z m 31.56,-39.012 c -1.35,-0.589 -2.34,-0.988 -2.97,-1.199 -4.47,-1.73 -9.15,-2.59 -14.03,-2.59 -6.46,0 -12.54,1.489 -18.29,4.481 -5.72,3.039 -10.28,7.168 -13.65,12.398 -3.42,5.313 -5.12,11.242 -5.12,17.77 0,4.929 0.99,9.519 2.97,13.781 1.98,4.219 4.7,7.879 8.16,11 3.41,3.121 7.37,5.5 11.88,7.141 4.51,1.73 9.19,2.597 14.05,2.597 4.8,0 9.47,-0.847 14.03,-2.527 4.55,-1.691 8.5,-4.09 11.88,-7.211 3.54,-3.199 6.28,-6.871 8.23,-11 1.97,-4.262 2.96,-8.852 2.96,-13.781 l -0.05,-32.938 -20.05,0.18 v 1.898"
         style="fill:#040606;fill-opacity:1;fill-rule:nonzero;stroke:none"
         id="path132" />
      <path
         d="m 1600.21,434.02 c 0,-2.981 0.79,-5.68 2.35,-8.079 1.55,-2.492 3.63,-4.48 6.25,-5.953 2.58,-1.468 5.33,-2.218 8.28,-2.218 2.95,0 5.74,0.75 8.35,2.218 2.61,1.473 4.7,3.461 6.26,5.953 1.56,2.438 2.34,5.129 2.34,8.079 0,4.48 -1.69,8.351 -5.06,11.64 -3.34,3.25 -7.29,4.871 -11.89,4.871 -4.55,0 -8.5,-1.621 -11.82,-4.871 -3.38,-3.25 -5.06,-7.121 -5.06,-11.64 z m -20.17,0.449 c 0.04,6.453 1.76,12.242 5.13,17.39 3.37,5.27 7.92,9.391 13.66,12.391 5.72,3.039 11.81,4.551 18.26,4.551 4.94,0 9.61,-0.86 14.04,-2.59 4.38,-1.602 8.36,-4.031 11.96,-7.27 3.53,-3.25 6.27,-6.961 8.21,-11.132 1.94,-4.18 2.91,-8.77 2.91,-13.789 0,-4.879 -0.99,-9.461 -2.98,-13.719 -1.93,-4.211 -4.65,-7.903 -8.14,-11.063 -3.51,-3.199 -7.49,-5.629 -11.96,-7.269 -4.51,-1.649 -9.19,-2.469 -14.04,-2.469 -4.77,0 -9.41,0.82 -13.96,2.469 l -1.47,0.64 -1.45,0.621 v -26.679 l -20.17,0.07 v 57.848"
         style="fill:#040606;fill-opacity:1;fill-rule:nonzero;stroke:none"
         id="path134" />
      <path
         d="m 1686.69,434.02 c 0,-2.981 0.77,-5.68 2.33,-8.079 1.57,-2.492 3.66,-4.48 6.27,-5.953 2.56,-1.468 5.34,-2.218 8.28,-2.218 2.95,0 5.73,0.75 8.34,2.218 2.62,1.473 4.71,3.461 6.26,5.953 1.56,2.438 2.34,5.129 2.34,8.079 0,4.48 -1.68,8.351 -5.06,11.64 -3.32,3.25 -7.29,4.871 -11.88,4.871 -4.55,0 -8.49,-1.621 -11.82,-4.871 -3.37,-3.25 -5.06,-7.121 -5.06,-11.64 z m -20.17,0.449 c 0.04,6.453 1.74,12.242 5.12,17.39 3.37,5.27 7.93,9.391 13.65,12.391 5.75,3.039 11.83,4.551 18.28,4.551 4.93,0 9.61,-0.86 14.04,-2.59 4.38,-1.602 8.37,-4.031 11.94,-7.27 3.55,-3.25 6.29,-6.961 8.22,-11.132 1.94,-4.18 2.91,-8.77 2.91,-13.789 0,-4.879 -0.99,-9.461 -2.97,-13.719 -1.94,-4.211 -4.66,-7.903 -8.16,-11.063 -3.5,-3.199 -7.48,-5.629 -11.94,-7.269 -4.51,-1.649 -9.19,-2.469 -14.04,-2.469 -4.76,0 -9.42,0.82 -13.98,2.469 l -1.45,0.64 -1.45,0.621 v -26.679 l -20.17,0.07 v 57.848"
         style="fill:#040606;fill-opacity:1;fill-rule:nonzero;stroke:none"
         id="path136" />
      <path
         d="m 1795.35,402.672 c -3.83,-1.57 -7.37,-2.492 -10.62,-2.793 -19.94,-2.109 -29.91,7.41 -29.91,28.519 v 37.743 h 20.24 v -36.352 c 0,-3.828 0.88,-6.738 2.65,-8.73 1.77,-1.938 4.26,-2.911 7.47,-2.911 3.07,0 5.54,1 7.4,2.981 1.76,1.98 2.65,4.871 2.65,8.66 v 36.293 l 20.23,0.059 V 393.82 c 0,-7.84 -2.78,-14.59 -8.35,-20.238 -2.52,-2.531 -6,-4.602 -10.43,-6.203 -4,-1.418 -8.03,-2.149 -12.07,-2.149 h -3.36 c -9.01,0.18 -16.25,2.95 -21.68,8.352 -3.53,3.629 -5.73,6.867 -6.58,9.738 l 18.28,10.68 c 0.17,-3.199 1.41,-5.891 3.73,-8.09 2.31,-2.191 5.08,-3.281 8.28,-3.281 2.48,0 4.77,0.711 6.83,2.152 1.94,1.301 3.39,3.11 4.36,5.43 l 0.06,0.187 0.13,0.313 0.13,0.449 0.12,0.442 0.32,1.457 0.06,0.312 V 394 h 0.06 v 8.672"
         style="fill:#040606;fill-opacity:1;fill-rule:nonzero;stroke:none"
         id="path138" />
      <path
         d="m 1874.99,467.469 c -2.61,2.492 -4.91,4.242 -6.88,5.25 -2.11,1.101 -4.57,1.652 -7.35,1.652 -2.06,0 -4,-0.66 -5.82,-1.973 -1.89,-1.308 -2.83,-3.027 -2.83,-5.179 0,-3.028 2.05,-5.43 6.19,-7.207 4.22,-1.813 8.54,-3.563 12.96,-5.242 4.46,-1.77 8.35,-4.579 11.63,-8.411 3.24,-3.879 4.87,-9.57 4.87,-17.07 0,-9.609 -2.89,-17 -8.66,-22.129 -5.73,-5.191 -13.05,-7.789 -21.93,-7.789 -5.16,0 -10.12,0.891 -14.92,2.66 -4.86,1.778 -9.12,4.43 -12.78,7.969 l 11.88,16.941 c 3.8,-4.8 8.79,-7.203 14.99,-7.203 2.49,0 4.87,0.692 7.14,2.094 2.24,1.34 3.36,3.328 3.36,5.93 0,3.078 -2.09,5.527 -6.26,7.34 -1.86,0.796 -4.01,1.707 -6.46,2.718 l -3.28,1.328 -3.36,1.391 c -4.5,1.852 -8.36,4.66 -11.56,8.41 -3.21,3.711 -4.81,9.25 -4.81,16.629 0,5.641 1.39,10.57 4.17,14.793 2.71,4.168 6.3,7.367 10.81,9.609 4.39,2.192 9.09,3.29 14.11,3.29 4.63,0 9.18,-0.891 13.65,-2.649 4.55,-1.859 8.53,-4.43 11.95,-7.723 l -10.81,-15.429"
         style="fill:#f5781e;fill-opacity:1;fill-rule:nonzero;stroke:none"
         id="path140" />
      <path
         d="m 1917.95,401.461 h -22.01 v 89.719 h 22.01 v -32.75 h 28.45 v 32.75 h 22 v -89.719 h -22 v 36.668 h -28.45 v -36.668"
         style="fill:#f5781e;fill-opacity:1;fill-rule:nonzero;stroke:none"
         id="path142" />
      <path
         d="m 2017.13,469.051 c -3.93,-2.442 -7.01,-5.731 -9.3,-9.86 -2.27,-4.089 -3.42,-8.39 -3.42,-12.902 0,-4.508 1.17,-8.809 3.48,-12.891 2.32,-4.179 5.4,-7.488 9.24,-9.929 3.88,-2.489 8.1,-3.731 12.7,-3.731 4.56,0 8.77,1.242 12.65,3.731 3.84,2.441 6.93,5.75 9.3,9.929 2.27,4.122 3.42,8.434 3.42,12.891 0,4.512 -1.15,8.813 -3.42,12.902 -2.28,4.09 -5.35,7.368 -9.24,9.86 -3.96,2.488 -8.19,3.73 -12.71,3.73 -4.6,0 -8.82,-1.242 -12.7,-3.73 z m 36.41,17.961 c 7.3,-4.223 13.05,-9.91 17.26,-17.071 4.26,-7.25 6.39,-15.14 6.39,-23.652 0,-8.559 -2.13,-16.418 -6.39,-23.578 -4.21,-7.211 -9.96,-12.902 -17.26,-17.082 -7.25,-4.168 -15.14,-6.258 -23.71,-6.258 -8.5,0 -16.41,2.09 -23.7,6.258 -7.34,4.223 -13.11,9.922 -17.32,17.082 -4.26,7.16 -6.39,15.019 -6.39,23.578 0,8.512 2.13,16.402 6.39,23.652 4.21,7.118 9.98,12.809 17.32,17.071 7.29,4.168 15.2,6.258 23.7,6.258 8.57,0 16.46,-2.09 23.71,-6.258"
         style="fill:#f5781e;fill-opacity:1;fill-rule:nonzero;stroke:none"
         id="path144" />
      <path
         d="m 2110.96,472.148 v -19.277 h 6.33 c 4.04,0 7.15,0.84 9.35,2.527 2.15,1.641 3.22,4.043 3.22,7.211 0,3.071 -1.07,5.43 -3.22,7.082 -2.2,1.637 -5.31,2.457 -9.35,2.457 z m -22.07,-70.687 v 89.719 h 26.81 c 5.98,0 11.08,-0.461 15.3,-1.391 4.29,-0.918 8,-2.488 11.13,-4.668 3.12,-2.199 5.53,-5.172 7.21,-8.922 1.68,-3.758 2.53,-8.328 2.53,-13.719 0,-4.421 -0.85,-8.39 -2.53,-11.878 -1.68,-3.512 -4.03,-6.5 -7.02,-8.993 -3.04,-2.527 -6.6,-4.437 -10.69,-5.75 -4.17,-1.347 -8.49,-2.019 -12.96,-2.019 h -7.71 v -32.379 h -22.07"
         style="fill:#f5781e;fill-opacity:1;fill-rule:nonzero;stroke:none"
         id="path146" />
      <path
         d="m 1564.88,318.738 2.85,1.711 c 2.01,-3.687 4.32,-5.539 6.95,-5.539 1.12,0 2.18,0.27 3.17,0.789 0.98,0.52 1.74,1.223 2.25,2.102 0.52,0.89 0.78,1.82 0.78,2.808 0,1.121 -0.39,2.223 -1.14,3.301 -1.05,1.488 -2.96,3.281 -5.74,5.379 -2.8,2.109 -4.54,3.633 -5.22,4.57 -1.18,1.582 -1.77,3.289 -1.77,5.121 0,1.461 0.34,2.79 1.04,3.989 0.7,1.203 1.69,2.152 2.95,2.84 1.27,0.679 2.65,1.043 4.14,1.043 1.58,0 3.04,-0.391 4.43,-1.18 1.37,-0.793 2.82,-2.223 4.36,-4.313 l -2.74,-2.078 c -1.26,1.668 -2.33,2.77 -3.22,3.309 -0.88,0.531 -1.86,0.789 -2.9,0.789 -1.36,0 -2.45,-0.41 -3.31,-1.231 -0.86,-0.816 -1.29,-1.828 -1.29,-3.027 l 0.45,-2.121 1.66,-2.219 c 0.45,-0.429 1.89,-1.551 4.33,-3.351 2.89,-2.141 4.89,-4.051 5.96,-5.719 1.09,-1.672 1.62,-3.352 1.62,-5.039 0,-2.434 -0.92,-4.543 -2.76,-6.32 -1.85,-1.801 -4.09,-2.692 -6.73,-2.692 -2.03,0 -3.89,0.539 -5.54,1.621 -1.65,1.09 -3.17,2.91 -4.58,5.457"
         style="fill:#040606;fill-opacity:1;fill-rule:nonzero;stroke:none"
         id="path148" />
      <path
         d="m 1602.34,346 h 3.34 v -30.27 h 12.89 v -3.23 h -16.23 V 346"
         style="fill:#040606;fill-opacity:1;fill-rule:nonzero;stroke:none"
         id="path150" />
      <path
         d="m 1652.43,343.582 c -2.47,0 -4.83,-0.641 -7.04,-1.934 -2.23,-1.289 -3.96,-3.039 -5.2,-5.218 -1.25,-2.192 -1.87,-4.621 -1.87,-7.321 0,-3.968 1.37,-7.339 4.13,-10.089 2.76,-2.731 6.09,-4.11 9.98,-4.11 2.61,0 5.01,0.641 7.22,1.899 2.22,1.261 3.94,2.98 5.17,5.171 1.25,2.192 1.87,4.622 1.87,7.301 0,2.649 -0.62,5.059 -1.87,7.199 -1.23,2.149 -2.97,3.879 -5.23,5.168 -2.25,1.293 -4.63,1.934 -7.16,1.934 z m -0.14,3.27 c 5.07,0 9.31,-1.704 12.73,-5.082 3.42,-3.391 5.14,-7.559 5.14,-12.508 0,-4.903 -1.71,-9.063 -5.12,-12.481 -3.42,-3.41 -7.58,-5.121 -12.48,-5.121 -4.96,0 -9.16,1.699 -12.58,5.102 -3.42,3.398 -5.13,7.519 -5.13,12.34 0,3.218 0.78,6.199 2.34,8.957 1.56,2.742 3.68,4.89 6.36,6.453 2.7,1.547 5.61,2.34 8.74,2.34"
         style="fill:#040606;fill-opacity:1;fill-rule:nonzero;stroke:none"
         id="path152" />
      <path
         d="m 1722.64,340.371 -2.6,-2.449 c -1.86,1.84 -3.91,3.219 -6.13,4.168 -2.23,0.961 -4.4,1.43 -6.51,1.43 -2.61,0 -5.11,-0.649 -7.5,-1.938 -2.38,-1.293 -4.22,-3.043 -5.52,-5.25 -1.3,-2.211 -1.96,-4.543 -1.96,-7 0,-2.523 0.68,-4.922 2.03,-7.184 1.35,-2.277 3.22,-4.046 5.6,-5.347 2.39,-1.301 4.99,-1.961 7.84,-1.961 3.44,0 6.36,0.98 8.74,2.922 2.38,1.949 3.8,4.468 4.23,7.558 h -10.67 v 3.231 h 14.44 c -0.04,-5.172 -1.57,-9.281 -4.62,-12.332 -3.04,-3.039 -7.12,-4.559 -12.22,-4.559 -6.19,0 -11.09,2.11 -14.7,6.328 -2.79,3.25 -4.17,7 -4.17,11.274 0,3.168 0.79,6.129 2.39,8.859 1.59,2.731 3.78,4.867 6.56,6.41 2.77,1.539 5.92,2.321 9.42,2.321 2.85,0 5.51,-0.52 8.02,-1.551 2.5,-1.02 4.94,-2.66 7.33,-4.93"
         style="fill:#040606;fill-opacity:1;fill-rule:nonzero;stroke:none"
         id="path154" />
      <path
         d="m 1757.58,338.891 -5.74,-12.129 h 11.45 z m 0.43,7.109 15.61,-33.5 h -3.61 l -5.26,11.031 h -14.44 l -5.22,-11.031 h -3.73 l 15.83,33.5 h 0.82"
         style="fill:#040606;fill-opacity:1;fill-rule:nonzero;stroke:none"
         id="path156" />
      <path
         d="M 1788.34,312.5 V 346 h 0.72 l 22.3,-25.68 V 346 h 3.3 v -33.5 h -0.75 l -22.11,25.371 V 312.5 h -3.46"
         style="fill:#040606;fill-opacity:1;fill-rule:nonzero;stroke:none"
         id="path158" />
      <path
         d="m 1856.25,346 h 3.34 v -14.051 h 17.06 V 346 h 3.35 v -33.5 h -3.35 v 16.172 h -17.06 V 312.5 h -3.34 V 346"
         style="fill:#040606;fill-opacity:1;fill-rule:nonzero;stroke:none"
         id="path160" />
      <path
         d="m 1900.31,346 h 19.2 v -3.281 h -15.86 V 332.23 h 15.73 v -3.281 h -15.73 v -13.168 h 15.73 V 312.5 h -19.07 V 346"
         style="fill:#040606;fill-opacity:1;fill-rule:nonzero;stroke:none"
         id="path162" />
      <path
         d="M 1947.81,342.719 V 331.34 l 5.76,-0.051 c 2.24,0 3.89,0.211 4.97,0.633 1.07,0.43 1.91,1.109 2.51,2.039 0.6,0.93 0.9,1.98 0.9,3.141 0,1.117 -0.31,2.136 -0.91,3.058 -0.61,0.91 -1.41,1.57 -2.4,1.969 -0.98,0.391 -2.62,0.59 -4.93,0.59 z m -3.36,3.281 h 6.68 c 3.71,0 6.24,-0.148 7.56,-0.449 1.99,-0.461 3.61,-1.442 4.85,-2.93 1.25,-1.512 1.87,-3.34 1.87,-5.543 0,-1.816 -0.43,-3.43 -1.29,-4.797 -0.86,-1.39 -2.08,-2.441 -3.67,-3.14 -1.6,-0.711 -3.8,-1.071 -6.6,-1.082 l 12.04,-15.559 h -4.14 l -12.05,15.559 h -1.89 V 312.5 h -3.36 V 346"
         style="fill:#040606;fill-opacity:1;fill-rule:nonzero;stroke:none"
         id="path164" />
      <path
         d="m 1988.3,346 h 19.19 v -3.281 h -15.85 V 332.23 h 15.71 v -3.281 h -15.71 v -13.168 h 15.71 V 312.5 H 1988.3 V 346"
         style="fill:#040606;fill-opacity:1;fill-rule:nonzero;stroke:none"
         id="path166" />
      <path
         d="m 1063.05,1534.79 c 3.43,-22.86 -12.65,-41.55 -35.76,-41.55 H 545.508 c -23.106,0 -39.199,18.69 -35.762,41.55 l 49.375,414.73 c 3.438,22.84 25.156,41.54 48.262,41.54 H 965.41 c 23.106,0 44.82,-18.7 48.26,-41.54 l 49.38,-414.73"
         style="fill:#92d33d;fill-opacity:1;fill-rule:nonzero;stroke:none"
         id="path168" />
      <path
         d="m 786.395,1640.38 c -71.969,0 -144.832,48.47 -144.832,141.1 0,11.61 9.406,21.01 21.003,21.01 11.606,0 21.008,-9.4 21.008,-21.01 0,-68.08 53.301,-99.09 102.821,-99.09 49.535,0 102.835,31.01 102.835,99.09 0,11.61 9.391,21.01 20.997,21.01 11.597,0 21.003,-9.4 21.003,-21.01 0,-92.63 -72.863,-141.1 -144.835,-141.1"
         style="fill:#ffffff;fill-opacity:1;fill-rule:nonzero;stroke:none"
         id="path170" />
      <path
         d="m 910.227,1965.96 c -11.606,0 -20.997,9.4 -20.997,21 0,68.08 -53.3,99.09 -102.835,99.09 -49.52,0 -102.821,-31.01 -102.821,-99.09 0,-11.6 -9.402,-21 -21.008,-21 -11.597,0 -21.003,9.4 -21.003,21 0,92.64 72.863,141.11 144.832,141.11 71.972,0 144.835,-48.47 144.835,-141.11 0,-11.6 -9.406,-21 -21.003,-21"
         style="fill:#92d33d;fill-opacity:1;fill-rule:nonzero;stroke:none"
         id="path172" />
      <path
         d="m 697.129,1861.67 c 0,-19.09 -15.469,-34.56 -34.563,-34.56 -19.082,0 -34.546,15.47 -34.546,34.56 0,19.07 15.464,34.55 34.546,34.55 19.094,0 34.563,-15.48 34.563,-34.55"
         style="fill:#ffffff;fill-opacity:1;fill-rule:nonzero;stroke:none"
         id="path174" />
      <path
         d="m 872.031,1830.02 c -6.965,0 -13.777,3.46 -17.773,9.79 -6.199,9.81 -3.281,22.78 6.535,28.98 2.027,1.29 50.32,31.13 94.734,-0.68 9.434,-6.75 11.602,-19.88 4.844,-29.31 -6.758,-9.44 -19.875,-11.59 -29.308,-4.84 -21.336,15.28 -47.567,-0.51 -47.833,-0.69 -3.484,-2.2 -7.363,-3.25 -11.199,-3.25"
         style="fill:#ffffff;fill-opacity:1;fill-rule:nonzero;stroke:none"
         id="path176" />
      <g
         id="g178">
        <g
           id="g180"
           clip-path="url(#clipPath184)">
          <path
             d="m 1797.97,1983.7 1.36,11.01 c 6.15,50.08 53.58,92.38 103.59,92.38 23.31,0 44.09,-8.98 58.53,-25.3 14.62,-16.54 21.09,-38.68 18.18,-62.34 l -1.93,-15.75 h 39.26 l 1.35,11.01 c 4.29,34.89 -5.55,67.89 -27.68,92.9 -21.93,24.79 -53.08,38.44 -87.71,38.44 -69.88,0 -133.7,-56.79 -142.28,-126.6 l -1.93,-15.75 h 39.26"
             style="fill:url(#linearGradient190);fill-opacity:1;fill-rule:nonzero;stroke:none"
             id="path192" />
        </g>
      </g>
      <g
         id="g194">
        <g
           id="g196"
           clip-path="url(#clipPath200)">
          <path
             d="m 1497.16,1704.95 c 16.07,0 29.23,11.57 29.23,25.71 0,14.14 -13.16,25.72 -29.23,25.72 h -5.04 -87.64 c -16.08,0 -29.23,-11.58 -29.23,-25.72 0,-14.14 13.15,-25.71 29.23,-25.71 h 87.64 5.04"
             style="fill:url(#linearGradient206);fill-opacity:1;fill-rule:nonzero;stroke:none"
             id="path208" />
        </g>
      </g>
      <g
         id="g210">
        <g
           id="g212"
           clip-path="url(#clipPath216)">
          <path
             d="m 1516.92,1910.64 h 18.92 c 16.08,0 29.23,11.57 29.23,25.71 0,14.14 -13.15,25.7 -29.23,25.7 h -18.92 c -16.07,0 -29.22,-11.56 -29.22,-25.7 0,-14.14 13.15,-25.71 29.22,-25.71"
             style="fill:url(#linearGradient222);fill-opacity:1;fill-rule:nonzero;stroke:none"
             id="path224" />
        </g>
      </g>
      <g
         id="g226">
        <g
           id="g228"
           clip-path="url(#clipPath232)">
          <path
             d="m 1985.53,1866.25 c -12.56,0 -22.74,10.18 -22.74,22.73 0,12.56 10.18,22.74 22.74,22.74 12.55,0 22.73,-10.18 22.73,-22.74 0,-12.55 -10.18,-22.73 -22.73,-22.73 z m -218.99,0 c -12.56,0 -22.73,10.18 -22.73,22.73 0,10.65 7.34,19.5 17.22,21.99 1.17,0.12 2.32,0.29 3.45,0.53 l 2.06,0.22 c 12.56,0 22.74,-10.18 22.74,-22.74 0,-12.55 -10.18,-22.73 -22.74,-22.73 z m -64.36,-212.71 h -31.4 c -16.07,0 -29.23,11.56 -29.23,25.7 0,14.14 13.16,25.71 29.23,25.71 h 31.4 c 16.07,0 29.23,-11.57 29.23,-25.71 0,-14.14 -13.16,-25.7 -29.23,-25.7 z m 366.84,308.51 h -456.18 c -16.07,0 -29.23,-11.56 -29.23,-25.7 0,-14.14 13.16,-25.71 29.23,-25.71 h -0.52 c 16.08,0 29.23,-11.58 29.23,-25.72 0,-14.14 -13.15,-25.71 -29.23,-25.71 h -81.51 c -16.07,0 -29.23,-11.57 -29.23,-25.7 0,-14.15 13.16,-25.72 29.23,-25.72 h 104.25 3.23 l -0.06,-0.28 c 14.58,-1.42 26.06,-12.24 26.06,-25.43 0,-14.14 -13.16,-25.7 -29.23,-25.7 h -6.95 -48.8 c -16.08,0 -29.23,-11.58 -29.23,-25.72 0,-14.14 13.15,-25.71 29.23,-25.71 h 3.49 c 16.08,0 29.23,-11.57 29.23,-25.71 0,-14.14 -13.15,-25.7 -29.23,-25.7 h -90.68 -5.37 c -16.08,0 -29.23,-11.58 -29.23,-25.72 0,-14.14 13.15,-25.71 29.23,-25.71 h 5.37 105.43 94.34 c 16.08,0 29.23,-11.56 29.23,-25.72 0,-14.13 -13.15,-25.7 -29.23,-25.7 h -104.53 l -0.5,-2.58 c -9.86,-4.13 -16.75,-12.92 -16.75,-23.13 0,-14.14 13.15,-25.71 29.23,-25.71 h 10.32 127.65 309.74 c 17.86,0 33.17,14.6 34.01,32.44 l 18.9,397.9 c 0.85,17.84 -13.08,32.44 -30.94,32.44"
             style="fill:url(#linearGradient238);fill-opacity:1;fill-rule:nonzero;stroke:none"
             id="path240" />
        </g>
      </g>
      <g
         id="g242">
        <g
           id="g244"
           clip-path="url(#clipPath248)">
          <path
             d="m 577.234,1008.5 -10.293,10.29 27.239,-1.82 13.925,18.76 374.891,-0.3 1.313,-16.64 -8.176,-21.802 -44.192,-22.386 -354.707,33.898"
             style="fill:url(#linearGradient254);fill-opacity:1;fill-rule:nonzero;stroke:none"
             id="path256" />
        </g>
      </g>
      <g
         id="g258">
        <g
           id="g260"
           clip-path="url(#clipPath264)">
          <path
             d="m 1039.75,909.199 c 0.81,-5.508 -2.2,-25.898 -32.4,-59.558 l 0.09,-0.7 C 963.965,802.559 895.352,758.328 813.281,728.211 745.266,703.25 679.219,692.09 624.219,693.691 l 19.804,325.099 h 303.055 l 22.551,-4.7 13.367,21.34 21.044,-160.532 c 13,7.602 26.93,18.762 35.71,34.301"
             style="fill:url(#linearGradient270);fill-opacity:1;fill-rule:nonzero;stroke:none"
             id="path272" />
        </g>
      </g>
      <g
         id="g274">
        <g
           id="g276"
           clip-path="url(#clipPath280)">
          <path
             d="m 830.867,662.512 c 74.914,27.5 139.524,66.289 186.753,108.789 l 26.91,-205.281 -32.99,-4.551 -35.407,-19.668 h -361.16 l 5.125,84.269 c 61.543,-2.98 135.183,8.7 210.769,36.442"
             style="fill:url(#linearGradient286);fill-opacity:1;fill-rule:nonzero;stroke:none"
             id="path288" />
        </g>
      </g>
      <g
         id="g290">
        <g
           id="g292"
           clip-path="url(#clipPath296)">
          <path
             d="m 656.438,1011.32 c 5.339,0 9.675,4.33 9.675,9.69 0,51.27 40.039,74.61 77.246,74.61 37.2,0 77.239,-23.34 77.239,-74.61 0,-5.36 4.336,-9.69 9.683,-9.69 5.344,0 9.68,4.33 9.68,9.69 0,61.7 -48.594,93.99 -96.602,93.99 -48.007,0 -96.613,-32.29 -96.613,-93.99 0,-5.36 4.34,-9.69 9.692,-9.69"
             style="fill:url(#linearGradient302);fill-opacity:1;fill-rule:nonzero;stroke:none"
             id="path304" />
        </g>
      </g>
      <g
         id="g306">
        <g
           id="g308"
           clip-path="url(#clipPath312)">
          <path
             d="m 696.277,1011.32 c 5.356,0 9.692,4.33 9.692,9.69 0,51.27 40.039,74.61 77.234,74.61 37.195,0 77.246,-23.34 77.246,-74.61 0,-5.36 4.336,-9.69 9.68,-9.69 5.351,0 9.684,4.33 9.684,9.69 0,61.7 -48.602,93.99 -96.61,93.99 -48.008,0 -96.601,-32.29 -96.601,-93.99 0,-5.36 4.336,-9.69 9.675,-9.69"
             style="fill:url(#linearGradient318);fill-opacity:1;fill-rule:nonzero;stroke:none"
             id="path320" />
        </g>
      </g>
      <g
         id="g322">
        <g
           id="g324"
           clip-path="url(#clipPath328)">
          <path
             d="m 830.867,662.512 c 49.856,18.297 95.141,41.597 133.789,67.668 L 976.133,541.801 H 537.891 l 5.949,97.597 c 70.43,-23.699 176.648,-17.41 287.027,23.114"
             style="fill:url(#linearGradient334);fill-opacity:1;fill-rule:nonzero;stroke:none"
             id="path336" />
        </g>
      </g>
      <g
         id="g338">
        <g
           id="g340"
           clip-path="url(#clipPath344)">
          <path
             d="M 813.281,728.211 C 700.508,686.82 593.098,683.309 532.617,713.172 c -13.34,7.058 -18.586,13.859 -19.875,16.937 11.535,-5.789 24.262,-7.66 36.153,-7.578 l 18.046,296.259 H 947.078 L 960,806.719 C 920.02,776.461 869.863,748.98 813.281,728.211"
             style="fill:url(#linearGradient350);fill-opacity:1;fill-rule:nonzero;stroke:none"
             id="path352" />
        </g>
      </g>
      <g
         id="g354">
        <g
           id="g356"
           clip-path="url(#clipPath360)">
          <path
             d="m 1103.04,916.629 c -9.41,30.43 -34.17,53.051 -69.45,67.332 13.24,-10.32 22.68,-23.039 27.36,-38.16 23.85,-77.242 -84.165,-186.571 -241.282,-244.242 -157.117,-57.661 -303.84,-41.821 -327.703,35.39 -5.852,18.949 -3.735,39.832 5.055,61.403 -27.184,-39.563 -38.028,-79.422 -27.274,-114.18 28.086,-90.871 192.625,-112.5 367.5,-48.313 174.894,64.192 293.884,189.879 265.794,280.77"
             style="fill:url(#linearGradient366);fill-opacity:1;fill-rule:nonzero;stroke:none"
             id="path368" />
        </g>
      </g>
      <g
         id="g370">
        <g
           id="g372"
           clip-path="url(#clipPath376)">
          <path
             d="m 2055.23,623.352 -74.28,357.589 c -2.8,18.571 -20.44,33.769 -39.22,33.769 h -291.01 c -18.78,0 -36.43,-15.198 -39.23,-33.769 l -74.27,-357.589 c -2.8,-18.563 10.28,-33.762 29.06,-33.762 h 34.46 c 0,43.371 35.16,78.531 78.54,78.531 43.37,0 78.53,-35.16 78.53,-78.531 h 76.83 c 0,43.371 35.15,78.531 78.53,78.531 43.38,0 78.54,-35.16 78.54,-78.531 h 34.46 c 18.78,0 31.86,15.199 29.06,33.762"
             style="fill:url(#linearGradient382);fill-opacity:1;fill-rule:nonzero;stroke:none"
             id="path384" />
        </g>
      </g>
      <path
         d="m 1796.22,805.09 c -56.8,0 -114.31,38.219 -114.31,111.269 0,7.551 6.13,13.661 13.67,13.661 7.54,0 13.66,-6.11 13.66,-13.661 0,-57.687 45.09,-83.961 86.98,-83.961 41.9,0 86.99,26.274 86.99,83.961 0,7.551 6.12,13.661 13.67,13.661 7.53,0 13.65,-6.11 13.65,-13.661 0,-73.05 -57.5,-111.269 -114.31,-111.269"
         style="fill:#ffffff;fill-opacity:1;fill-rule:nonzero;stroke:none"
         id="path386" />
      <g
         id="g388">
        <g
           id="g390"
           clip-path="url(#clipPath394)">
          <path
             d="m 1896.88,997.711 c -7.55,0 -13.67,6.119 -13.67,13.659 0,57.68 -45.09,83.96 -86.99,83.96 -41.89,0 -86.98,-26.28 -86.98,-83.96 0,-7.54 -6.12,-13.659 -13.66,-13.659 -7.54,0 -13.67,6.119 -13.67,13.659 0,73.05 57.51,111.28 114.31,111.28 56.81,0 114.31,-38.23 114.31,-111.28 0,-7.54 -6.12,-13.659 -13.65,-13.659"
             style="fill:url(#linearGradient400);fill-opacity:1;fill-rule:nonzero;stroke:none"
             id="path402" />
        </g>
      </g>
      <path
         d="m 1720.25,916.359 c 0,-13.629 -11.05,-24.668 -24.67,-24.668 -13.63,0 -24.67,11.039 -24.67,24.668 0,13.621 11.04,24.68 24.67,24.68 13.62,0 24.67,-11.059 24.67,-24.68"
         style="fill:#ffffff;fill-opacity:1;fill-rule:nonzero;stroke:none"
         id="path404" />
      <path
         d="m 1921.54,916.359 c 0,-13.629 -11.04,-24.668 -24.66,-24.668 -13.64,0 -24.68,11.039 -24.68,24.668 0,13.621 11.04,24.68 24.68,24.68 13.62,0 24.66,-11.059 24.66,-24.68"
         style="fill:#ffffff;fill-opacity:1;fill-rule:nonzero;stroke:none"
         id="path406" />
      <path
         d="m 1736.87,589.59 c 0,-31.809 -25.8,-57.602 -57.59,-57.602 -31.81,0 -57.6,25.793 -57.6,57.602 0,31.808 25.79,57.59 57.6,57.59 31.79,0 57.59,-25.782 57.59,-57.59"
         style="fill:#1a181a;fill-opacity:1;fill-rule:nonzero;stroke:none"
         id="path408" />
      <path
         d="m 1970.76,589.59 c 0,-31.809 -25.78,-57.602 -57.59,-57.602 -31.8,0 -57.58,25.793 -57.58,57.602 0,31.808 25.78,57.59 57.58,57.59 31.81,0 57.59,-25.782 57.59,-57.59"
         style="fill:#1a181a;fill-opacity:1;fill-rule:nonzero;stroke:none"
         id="path410" />
      <path
         d="m 1932.77,589.59 c 0,-10.828 -8.77,-19.61 -19.6,-19.61 -10.83,0 -19.6,8.782 -19.6,19.61 0,10.82 8.77,19.601 19.6,19.601 10.83,0 19.6,-8.781 19.6,-19.601"
         style="fill:#ffffff;fill-opacity:1;fill-rule:nonzero;stroke:none"
         id="path412" />
      <path
         d="m 1698.88,589.59 c 0,-10.828 -8.78,-19.61 -19.6,-19.61 -10.83,0 -19.61,8.782 -19.61,19.61 0,10.82 8.78,19.601 19.61,19.601 10.82,0 19.6,-8.781 19.6,-19.601"
         style="fill:#ffffff;fill-opacity:1;fill-rule:nonzero;stroke:none"
         id="path414" />
    </g>
  </g>
</svg>
